<?xml version="1.0" encoding="utf-8" standalone="no"?>
<!DOCTYPE svg PUBLIC "-//W3C//DTD SVG 1.1//EN"
  "http://www.w3.org/Graphics/SVG/1.1/DTD/svg11.dtd">
<svg xmlns:xlink="http://www.w3.org/1999/xlink" width="423.043125pt" height="351.265469pt" viewBox="0 0 423.043125 351.265469" xmlns="http://www.w3.org/2000/svg" version="1.1">
 <metadata>
  <rdf:RDF xmlns:dc="http://purl.org/dc/elements/1.1/" xmlns:cc="http://creativecommons.org/ns#" xmlns:rdf="http://www.w3.org/1999/02/22-rdf-syntax-ns#">
   <cc:Work>
    <dc:type rdf:resource="http://purl.org/dc/dcmitype/StillImage"/>
    <dc:date>2025-12-06T20:27:38.473425</dc:date>
    <dc:format>image/svg+xml</dc:format>
    <dc:creator>
     <cc:Agent>
      <dc:title>Matplotlib v3.6.3, https://matplotlib.org/</dc:title>
     </cc:Agent>
    </dc:creator>
   </cc:Work>
  </rdf:RDF>
 </metadata>
 <defs>
  <style type="text/css">*{stroke-linejoin: round; stroke-linecap: butt}</style>
 </defs>
 <g id="figure_1">
  <g id="patch_1">
   <path d="M 0 351.265469 
L 423.043125 351.265469 
L 423.043125 0 
L 0 0 
z
" style="fill: #ffffff"/>
  </g>
  <g id="axes_1">
   <g id="patch_2">
    <path d="M 34.153125 313.337969 
L 415.843125 313.337969 
L 415.843125 32.597969 
L 34.153125 32.597969 
z
" style="fill: #ffffff"/>
   </g>
   <g id="PathCollection_1">
    <path d="M 363.981061 138.071417 
L 391.367189 110.685289 
M 363.981061 110.685289 
L 391.367189 138.071417 
" clip-path="url(#p0d01a7f4ee)" style="fill: #c00000; fill-opacity: 0.8; stroke: #c00000; stroke-opacity: 0.8; stroke-width: 1.5"/>
    <path d="M 290.381674 189.321266 
L 312.290576 167.412364 
M 290.381674 167.412364 
L 312.290576 189.321266 
" clip-path="url(#p0d01a7f4ee)" style="fill: #ffc000; fill-opacity: 0.8; stroke: #ffc000; stroke-opacity: 0.8; stroke-width: 1.5"/>
    <path d="M 216.782287 240.571115 
L 233.213963 224.139438 
M 216.782287 224.139438 
L 233.213963 240.571115 
" clip-path="url(#p0d01a7f4ee)" style="fill: #008d36; fill-opacity: 0.8; stroke: #008d36; stroke-opacity: 0.8; stroke-width: 1.5"/>
    <path d="M 290.381674 135.332805 
L 312.290576 113.423902 
M 290.381674 113.423902 
L 312.290576 135.332805 
" clip-path="url(#p0d01a7f4ee)" style="fill: #005b96; fill-opacity: 0.8; stroke: #005b96; stroke-opacity: 0.8; stroke-width: 1.5"/>
    <path d="M 363.981061 84.082956 
L 391.367189 56.696828 
M 363.981061 56.696828 
L 391.367189 84.082956 
" clip-path="url(#p0d01a7f4ee)" style="fill: #c00000; fill-opacity: 0.8; stroke: #c00000; stroke-opacity: 0.8; stroke-width: 1.5"/>
   </g>
   <g id="matplotlib.axis_1">
    <g id="xtick_1">
     <g id="line2d_1">
      <path d="M 72.322125 313.337969 
L 72.322125 32.597969 
" clip-path="url(#p0d01a7f4ee)" style="fill: none; stroke-dasharray: 2.22,0.96; stroke-dashoffset: 0; stroke: #b0b0b0; stroke-opacity: 0.3; stroke-width: 0.6"/>
     </g>
     <g id="line2d_2">
      <defs>
       <path id="m77d49e01bf" d="M 0 0 
L 0 -3.5 
" style="stroke: #1a1a1a; stroke-width: 0.8"/>
      </defs>
      <g>
       <use xlink:href="#m77d49e01bf" x="72.322125" y="313.337969" style="fill: #1a1a1a; stroke: #1a1a1a; stroke-width: 0.8"/>
      </g>
     </g>
     <g id="text_1">
      <!-- 1 -->
      <g style="fill: #1a1a1a" transform="translate(68.504625 325.956094) scale(0.12 -0.12)">
       <defs>
        <path id="DejaVuSans-31" d="M 794 531 
L 1825 531 
L 1825 4091 
L 703 3866 
L 703 4441 
L 1819 4666 
L 2450 4666 
L 2450 531 
L 3481 531 
L 3481 0 
L 794 0 
L 794 531 
z
" transform="scale(0.015625)"/>
       </defs>
       <use xlink:href="#DejaVuSans-31"/>
      </g>
     </g>
    </g>
    <g id="xtick_2">
     <g id="line2d_3">
      <path d="M 148.660125 313.337969 
L 148.660125 32.597969 
" clip-path="url(#p0d01a7f4ee)" style="fill: none; stroke-dasharray: 2.22,0.96; stroke-dashoffset: 0; stroke: #b0b0b0; stroke-opacity: 0.3; stroke-width: 0.6"/>
     </g>
     <g id="line2d_4">
      <g>
       <use xlink:href="#m77d49e01bf" x="148.660125" y="313.337969" style="fill: #1a1a1a; stroke: #1a1a1a; stroke-width: 0.8"/>
      </g>
     </g>
     <g id="text_2">
      <!-- 2 -->
      <g style="fill: #1a1a1a" transform="translate(144.842625 325.956094) scale(0.12 -0.12)">
       <defs>
        <path id="DejaVuSans-32" d="M 1228 531 
L 3431 531 
L 3431 0 
L 469 0 
L 469 531 
Q 828 903 1448 1529 
Q 2069 2156 2228 2338 
Q 2531 2678 2651 2914 
Q 2772 3150 2772 3378 
Q 2772 3750 2511 3984 
Q 2250 4219 1831 4219 
Q 1534 4219 1204 4116 
Q 875 4013 500 3803 
L 500 4441 
Q 881 4594 1212 4672 
Q 1544 4750 1819 4750 
Q 2544 4750 2975 4387 
Q 3406 4025 3406 3419 
Q 3406 3131 3298 2873 
Q 3191 2616 2906 2266 
Q 2828 2175 2409 1742 
Q 1991 1309 1228 531 
z
" transform="scale(0.015625)"/>
       </defs>
       <use xlink:href="#DejaVuSans-32"/>
      </g>
     </g>
    </g>
    <g id="xtick_3">
     <g id="line2d_5">
      <path d="M 224.998125 313.337969 
L 224.998125 32.597969 
" clip-path="url(#p0d01a7f4ee)" style="fill: none; stroke-dasharray: 2.22,0.96; stroke-dashoffset: 0; stroke: #b0b0b0; stroke-opacity: 0.3; stroke-width: 0.6"/>
     </g>
     <g id="line2d_6">
      <g>
       <use xlink:href="#m77d49e01bf" x="224.998125" y="313.337969" style="fill: #1a1a1a; stroke: #1a1a1a; stroke-width: 0.8"/>
      </g>
     </g>
     <g id="text_3">
      <!-- 3 -->
      <g style="fill: #1a1a1a" transform="translate(221.180625 325.956094) scale(0.12 -0.12)">
       <defs>
        <path id="DejaVuSans-33" d="M 2597 2516 
Q 3050 2419 3304 2112 
Q 3559 1806 3559 1356 
Q 3559 666 3084 287 
Q 2609 -91 1734 -91 
Q 1441 -91 1130 -33 
Q 819 25 488 141 
L 488 750 
Q 750 597 1062 519 
Q 1375 441 1716 441 
Q 2309 441 2620 675 
Q 2931 909 2931 1356 
Q 2931 1769 2642 2001 
Q 2353 2234 1838 2234 
L 1294 2234 
L 1294 2753 
L 1863 2753 
Q 2328 2753 2575 2939 
Q 2822 3125 2822 3475 
Q 2822 3834 2567 4026 
Q 2313 4219 1838 4219 
Q 1578 4219 1281 4162 
Q 984 4106 628 3988 
L 628 4550 
Q 988 4650 1302 4700 
Q 1616 4750 1894 4750 
Q 2613 4750 3031 4423 
Q 3450 4097 3450 3541 
Q 3450 3153 3228 2886 
Q 3006 2619 2597 2516 
z
" transform="scale(0.015625)"/>
       </defs>
       <use xlink:href="#DejaVuSans-33"/>
      </g>
     </g>
    </g>
    <g id="xtick_4">
     <g id="line2d_7">
      <path d="M 301.336125 313.337969 
L 301.336125 32.597969 
" clip-path="url(#p0d01a7f4ee)" style="fill: none; stroke-dasharray: 2.22,0.96; stroke-dashoffset: 0; stroke: #b0b0b0; stroke-opacity: 0.3; stroke-width: 0.6"/>
     </g>
     <g id="line2d_8">
      <g>
       <use xlink:href="#m77d49e01bf" x="301.336125" y="313.337969" style="fill: #1a1a1a; stroke: #1a1a1a; stroke-width: 0.8"/>
      </g>
     </g>
     <g id="text_4">
      <!-- 4 -->
      <g style="fill: #1a1a1a" transform="translate(297.518625 325.956094) scale(0.12 -0.12)">
       <defs>
        <path id="DejaVuSans-34" d="M 2419 4116 
L 825 1625 
L 2419 1625 
L 2419 4116 
z
M 2253 4666 
L 3047 4666 
L 3047 1625 
L 3713 1625 
L 3713 1100 
L 3047 1100 
L 3047 0 
L 2419 0 
L 2419 1100 
L 313 1100 
L 313 1709 
L 2253 4666 
z
" transform="scale(0.015625)"/>
       </defs>
       <use xlink:href="#DejaVuSans-34"/>
      </g>
     </g>
    </g>
    <g id="xtick_5">
     <g id="line2d_9">
      <path d="M 377.674125 313.337969 
L 377.674125 32.597969 
" clip-path="url(#p0d01a7f4ee)" style="fill: none; stroke-dasharray: 2.22,0.96; stroke-dashoffset: 0; stroke: #b0b0b0; stroke-opacity: 0.3; stroke-width: 0.6"/>
     </g>
     <g id="line2d_10">
      <g>
       <use xlink:href="#m77d49e01bf" x="377.674125" y="313.337969" style="fill: #1a1a1a; stroke: #1a1a1a; stroke-width: 0.8"/>
      </g>
     </g>
     <g id="text_5">
      <!-- 5 -->
      <g style="fill: #1a1a1a" transform="translate(373.856625 325.956094) scale(0.12 -0.12)">
       <defs>
        <path id="DejaVuSans-35" d="M 691 4666 
L 3169 4666 
L 3169 4134 
L 1269 4134 
L 1269 2991 
Q 1406 3038 1543 3061 
Q 1681 3084 1819 3084 
Q 2600 3084 3056 2656 
Q 3513 2228 3513 1497 
Q 3513 744 3044 326 
Q 2575 -91 1722 -91 
Q 1428 -91 1123 -41 
Q 819 9 494 109 
L 494 744 
Q 775 591 1075 516 
Q 1375 441 1709 441 
Q 2250 441 2565 725 
Q 2881 1009 2881 1497 
Q 2881 1984 2565 2268 
Q 2250 2553 1709 2553 
Q 1456 2553 1204 2497 
Q 953 2441 691 2322 
L 691 4666 
z
" transform="scale(0.015625)"/>
       </defs>
       <use xlink:href="#DejaVuSans-35"/>
      </g>
     </g>
    </g>
    <g id="text_6">
     <!-- Impacto Fiscal (1–5) -->
     <g style="fill: #1a1a1a" transform="translate(164.993437 341.569844) scale(0.12 -0.12)">
      <defs>
       <path id="DejaVuSans-49" d="M 628 4666 
L 1259 4666 
L 1259 0 
L 628 0 
L 628 4666 
z
" transform="scale(0.015625)"/>
       <path id="DejaVuSans-6d" d="M 3328 2828 
Q 3544 3216 3844 3400 
Q 4144 3584 4550 3584 
Q 5097 3584 5394 3201 
Q 5691 2819 5691 2113 
L 5691 0 
L 5113 0 
L 5113 2094 
Q 5113 2597 4934 2840 
Q 4756 3084 4391 3084 
Q 3944 3084 3684 2787 
Q 3425 2491 3425 1978 
L 3425 0 
L 2847 0 
L 2847 2094 
Q 2847 2600 2669 2842 
Q 2491 3084 2119 3084 
Q 1678 3084 1418 2786 
Q 1159 2488 1159 1978 
L 1159 0 
L 581 0 
L 581 3500 
L 1159 3500 
L 1159 2956 
Q 1356 3278 1631 3431 
Q 1906 3584 2284 3584 
Q 2666 3584 2933 3390 
Q 3200 3197 3328 2828 
z
" transform="scale(0.015625)"/>
       <path id="DejaVuSans-70" d="M 1159 525 
L 1159 -1331 
L 581 -1331 
L 581 3500 
L 1159 3500 
L 1159 2969 
Q 1341 3281 1617 3432 
Q 1894 3584 2278 3584 
Q 2916 3584 3314 3078 
Q 3713 2572 3713 1747 
Q 3713 922 3314 415 
Q 2916 -91 2278 -91 
Q 1894 -91 1617 61 
Q 1341 213 1159 525 
z
M 3116 1747 
Q 3116 2381 2855 2742 
Q 2594 3103 2138 3103 
Q 1681 3103 1420 2742 
Q 1159 2381 1159 1747 
Q 1159 1113 1420 752 
Q 1681 391 2138 391 
Q 2594 391 2855 752 
Q 3116 1113 3116 1747 
z
" transform="scale(0.015625)"/>
       <path id="DejaVuSans-61" d="M 2194 1759 
Q 1497 1759 1228 1600 
Q 959 1441 959 1056 
Q 959 750 1161 570 
Q 1363 391 1709 391 
Q 2188 391 2477 730 
Q 2766 1069 2766 1631 
L 2766 1759 
L 2194 1759 
z
M 3341 1997 
L 3341 0 
L 2766 0 
L 2766 531 
Q 2569 213 2275 61 
Q 1981 -91 1556 -91 
Q 1019 -91 701 211 
Q 384 513 384 1019 
Q 384 1609 779 1909 
Q 1175 2209 1959 2209 
L 2766 2209 
L 2766 2266 
Q 2766 2663 2505 2880 
Q 2244 3097 1772 3097 
Q 1472 3097 1187 3025 
Q 903 2953 641 2809 
L 641 3341 
Q 956 3463 1253 3523 
Q 1550 3584 1831 3584 
Q 2591 3584 2966 3190 
Q 3341 2797 3341 1997 
z
" transform="scale(0.015625)"/>
       <path id="DejaVuSans-63" d="M 3122 3366 
L 3122 2828 
Q 2878 2963 2633 3030 
Q 2388 3097 2138 3097 
Q 1578 3097 1268 2742 
Q 959 2388 959 1747 
Q 959 1106 1268 751 
Q 1578 397 2138 397 
Q 2388 397 2633 464 
Q 2878 531 3122 666 
L 3122 134 
Q 2881 22 2623 -34 
Q 2366 -91 2075 -91 
Q 1284 -91 818 406 
Q 353 903 353 1747 
Q 353 2603 823 3093 
Q 1294 3584 2113 3584 
Q 2378 3584 2631 3529 
Q 2884 3475 3122 3366 
z
" transform="scale(0.015625)"/>
       <path id="DejaVuSans-74" d="M 1172 4494 
L 1172 3500 
L 2356 3500 
L 2356 3053 
L 1172 3053 
L 1172 1153 
Q 1172 725 1289 603 
Q 1406 481 1766 481 
L 2356 481 
L 2356 0 
L 1766 0 
Q 1100 0 847 248 
Q 594 497 594 1153 
L 594 3053 
L 172 3053 
L 172 3500 
L 594 3500 
L 594 4494 
L 1172 4494 
z
" transform="scale(0.015625)"/>
       <path id="DejaVuSans-6f" d="M 1959 3097 
Q 1497 3097 1228 2736 
Q 959 2375 959 1747 
Q 959 1119 1226 758 
Q 1494 397 1959 397 
Q 2419 397 2687 759 
Q 2956 1122 2956 1747 
Q 2956 2369 2687 2733 
Q 2419 3097 1959 3097 
z
M 1959 3584 
Q 2709 3584 3137 3096 
Q 3566 2609 3566 1747 
Q 3566 888 3137 398 
Q 2709 -91 1959 -91 
Q 1206 -91 779 398 
Q 353 888 353 1747 
Q 353 2609 779 3096 
Q 1206 3584 1959 3584 
z
" transform="scale(0.015625)"/>
       <path id="DejaVuSans-20" transform="scale(0.015625)"/>
       <path id="DejaVuSans-46" d="M 628 4666 
L 3309 4666 
L 3309 4134 
L 1259 4134 
L 1259 2759 
L 3109 2759 
L 3109 2228 
L 1259 2228 
L 1259 0 
L 628 0 
L 628 4666 
z
" transform="scale(0.015625)"/>
       <path id="DejaVuSans-69" d="M 603 3500 
L 1178 3500 
L 1178 0 
L 603 0 
L 603 3500 
z
M 603 4863 
L 1178 4863 
L 1178 4134 
L 603 4134 
L 603 4863 
z
" transform="scale(0.015625)"/>
       <path id="DejaVuSans-73" d="M 2834 3397 
L 2834 2853 
Q 2591 2978 2328 3040 
Q 2066 3103 1784 3103 
Q 1356 3103 1142 2972 
Q 928 2841 928 2578 
Q 928 2378 1081 2264 
Q 1234 2150 1697 2047 
L 1894 2003 
Q 2506 1872 2764 1633 
Q 3022 1394 3022 966 
Q 3022 478 2636 193 
Q 2250 -91 1575 -91 
Q 1294 -91 989 -36 
Q 684 19 347 128 
L 347 722 
Q 666 556 975 473 
Q 1284 391 1588 391 
Q 1994 391 2212 530 
Q 2431 669 2431 922 
Q 2431 1156 2273 1281 
Q 2116 1406 1581 1522 
L 1381 1569 
Q 847 1681 609 1914 
Q 372 2147 372 2553 
Q 372 3047 722 3315 
Q 1072 3584 1716 3584 
Q 2034 3584 2315 3537 
Q 2597 3491 2834 3397 
z
" transform="scale(0.015625)"/>
       <path id="DejaVuSans-6c" d="M 603 4863 
L 1178 4863 
L 1178 0 
L 603 0 
L 603 4863 
z
" transform="scale(0.015625)"/>
       <path id="DejaVuSans-28" d="M 1984 4856 
Q 1566 4138 1362 3434 
Q 1159 2731 1159 2009 
Q 1159 1288 1364 580 
Q 1569 -128 1984 -844 
L 1484 -844 
Q 1016 -109 783 600 
Q 550 1309 550 2009 
Q 550 2706 781 3412 
Q 1013 4119 1484 4856 
L 1984 4856 
z
" transform="scale(0.015625)"/>
       <path id="DejaVuSans-2013" d="M 313 1978 
L 2888 1978 
L 2888 1528 
L 313 1528 
L 313 1978 
z
" transform="scale(0.015625)"/>
       <path id="DejaVuSans-29" d="M 513 4856 
L 1013 4856 
Q 1481 4119 1714 3412 
Q 1947 2706 1947 2009 
Q 1947 1309 1714 600 
Q 1481 -109 1013 -844 
L 513 -844 
Q 928 -128 1133 580 
Q 1338 1288 1338 2009 
Q 1338 2731 1133 3434 
Q 928 4138 513 4856 
z
" transform="scale(0.015625)"/>
      </defs>
      <use xlink:href="#DejaVuSans-49"/>
      <use xlink:href="#DejaVuSans-6d" x="29.492188"/>
      <use xlink:href="#DejaVuSans-70" x="126.904297"/>
      <use xlink:href="#DejaVuSans-61" x="190.380859"/>
      <use xlink:href="#DejaVuSans-63" x="251.660156"/>
      <use xlink:href="#DejaVuSans-74" x="306.640625"/>
      <use xlink:href="#DejaVuSans-6f" x="345.849609"/>
      <use xlink:href="#DejaVuSans-20" x="407.03125"/>
      <use xlink:href="#DejaVuSans-46" x="438.818359"/>
      <use xlink:href="#DejaVuSans-69" x="489.087891"/>
      <use xlink:href="#DejaVuSans-73" x="516.871094"/>
      <use xlink:href="#DejaVuSans-63" x="568.970703"/>
      <use xlink:href="#DejaVuSans-61" x="623.951172"/>
      <use xlink:href="#DejaVuSans-6c" x="685.230469"/>
      <use xlink:href="#DejaVuSans-20" x="713.013672"/>
      <use xlink:href="#DejaVuSans-28" x="744.800781"/>
      <use xlink:href="#DejaVuSans-31" x="783.814453"/>
      <use xlink:href="#DejaVuSans-2013" x="847.4375"/>
      <use xlink:href="#DejaVuSans-35" x="897.4375"/>
      <use xlink:href="#DejaVuSans-29" x="961.060547"/>
     </g>
    </g>
   </g>
   <g id="matplotlib.axis_2">
    <g id="ytick_1">
     <g id="line2d_11">
      <path d="M 34.153125 286.343738 
L 415.843125 286.343738 
" clip-path="url(#p0d01a7f4ee)" style="fill: none; stroke-dasharray: 2.22,0.96; stroke-dashoffset: 0; stroke: #b0b0b0; stroke-opacity: 0.3; stroke-width: 0.6"/>
     </g>
     <g id="line2d_12">
      <defs>
       <path id="m507474bb78" d="M 0 0 
L 3.5 0 
" style="stroke: #1a1a1a; stroke-width: 0.8"/>
      </defs>
      <g>
       <use xlink:href="#m507474bb78" x="34.153125" y="286.343738" style="fill: #1a1a1a; stroke: #1a1a1a; stroke-width: 0.8"/>
      </g>
     </g>
     <g id="text_7">
      <!-- 1 -->
      <g style="fill: #1a1a1a" transform="translate(23.018125 290.9028) scale(0.12 -0.12)">
       <use xlink:href="#DejaVuSans-31"/>
      </g>
     </g>
    </g>
    <g id="ytick_2">
     <g id="line2d_13">
      <path d="M 34.153125 232.355276 
L 415.843125 232.355276 
" clip-path="url(#p0d01a7f4ee)" style="fill: none; stroke-dasharray: 2.22,0.96; stroke-dashoffset: 0; stroke: #b0b0b0; stroke-opacity: 0.3; stroke-width: 0.6"/>
     </g>
     <g id="line2d_14">
      <g>
       <use xlink:href="#m507474bb78" x="34.153125" y="232.355276" style="fill: #1a1a1a; stroke: #1a1a1a; stroke-width: 0.8"/>
      </g>
     </g>
     <g id="text_8">
      <!-- 2 -->
      <g style="fill: #1a1a1a" transform="translate(23.018125 236.914339) scale(0.12 -0.12)">
       <use xlink:href="#DejaVuSans-32"/>
      </g>
     </g>
    </g>
    <g id="ytick_3">
     <g id="line2d_15">
      <path d="M 34.153125 178.366815 
L 415.843125 178.366815 
" clip-path="url(#p0d01a7f4ee)" style="fill: none; stroke-dasharray: 2.22,0.96; stroke-dashoffset: 0; stroke: #b0b0b0; stroke-opacity: 0.3; stroke-width: 0.6"/>
     </g>
     <g id="line2d_16">
      <g>
       <use xlink:href="#m507474bb78" x="34.153125" y="178.366815" style="fill: #1a1a1a; stroke: #1a1a1a; stroke-width: 0.8"/>
      </g>
     </g>
     <g id="text_9">
      <!-- 3 -->
      <g style="fill: #1a1a1a" transform="translate(23.018125 182.925877) scale(0.12 -0.12)">
       <use xlink:href="#DejaVuSans-33"/>
      </g>
     </g>
    </g>
    <g id="ytick_4">
     <g id="line2d_17">
      <path d="M 34.153125 124.378353 
L 415.843125 124.378353 
" clip-path="url(#p0d01a7f4ee)" style="fill: none; stroke-dasharray: 2.22,0.96; stroke-dashoffset: 0; stroke: #b0b0b0; stroke-opacity: 0.3; stroke-width: 0.6"/>
     </g>
     <g id="line2d_18">
      <g>
       <use xlink:href="#m507474bb78" x="34.153125" y="124.378353" style="fill: #1a1a1a; stroke: #1a1a1a; stroke-width: 0.8"/>
      </g>
     </g>
     <g id="text_10">
      <!-- 4 -->
      <g style="fill: #1a1a1a" transform="translate(23.018125 128.937416) scale(0.12 -0.12)">
       <use xlink:href="#DejaVuSans-34"/>
      </g>
     </g>
    </g>
    <g id="ytick_5">
     <g id="line2d_19">
      <path d="M 34.153125 70.389892 
L 415.843125 70.389892 
" clip-path="url(#p0d01a7f4ee)" style="fill: none; stroke-dasharray: 2.22,0.96; stroke-dashoffset: 0; stroke: #b0b0b0; stroke-opacity: 0.3; stroke-width: 0.6"/>
     </g>
     <g id="line2d_20">
      <g>
       <use xlink:href="#m507474bb78" x="34.153125" y="70.389892" style="fill: #1a1a1a; stroke: #1a1a1a; stroke-width: 0.8"/>
      </g>
     </g>
     <g id="text_11">
      <!-- 5 -->
      <g style="fill: #1a1a1a" transform="translate(23.018125 74.948954) scale(0.12 -0.12)">
       <use xlink:href="#DejaVuSans-35"/>
      </g>
     </g>
    </g>
    <g id="text_12">
     <!-- Probabilidade / Exposição (1–5) -->
     <g style="fill: #1a1a1a" transform="translate(16.5225 267.087344) rotate(-90) scale(0.12 -0.12)">
      <defs>
       <path id="DejaVuSans-50" d="M 1259 4147 
L 1259 2394 
L 2053 2394 
Q 2494 2394 2734 2622 
Q 2975 2850 2975 3272 
Q 2975 3691 2734 3919 
Q 2494 4147 2053 4147 
L 1259 4147 
z
M 628 4666 
L 2053 4666 
Q 2838 4666 3239 4311 
Q 3641 3956 3641 3272 
Q 3641 2581 3239 2228 
Q 2838 1875 2053 1875 
L 1259 1875 
L 1259 0 
L 628 0 
L 628 4666 
z
" transform="scale(0.015625)"/>
       <path id="DejaVuSans-72" d="M 2631 2963 
Q 2534 3019 2420 3045 
Q 2306 3072 2169 3072 
Q 1681 3072 1420 2755 
Q 1159 2438 1159 1844 
L 1159 0 
L 581 0 
L 581 3500 
L 1159 3500 
L 1159 2956 
Q 1341 3275 1631 3429 
Q 1922 3584 2338 3584 
Q 2397 3584 2469 3576 
Q 2541 3569 2628 3553 
L 2631 2963 
z
" transform="scale(0.015625)"/>
       <path id="DejaVuSans-62" d="M 3116 1747 
Q 3116 2381 2855 2742 
Q 2594 3103 2138 3103 
Q 1681 3103 1420 2742 
Q 1159 2381 1159 1747 
Q 1159 1113 1420 752 
Q 1681 391 2138 391 
Q 2594 391 2855 752 
Q 3116 1113 3116 1747 
z
M 1159 2969 
Q 1341 3281 1617 3432 
Q 1894 3584 2278 3584 
Q 2916 3584 3314 3078 
Q 3713 2572 3713 1747 
Q 3713 922 3314 415 
Q 2916 -91 2278 -91 
Q 1894 -91 1617 61 
Q 1341 213 1159 525 
L 1159 0 
L 581 0 
L 581 4863 
L 1159 4863 
L 1159 2969 
z
" transform="scale(0.015625)"/>
       <path id="DejaVuSans-64" d="M 2906 2969 
L 2906 4863 
L 3481 4863 
L 3481 0 
L 2906 0 
L 2906 525 
Q 2725 213 2448 61 
Q 2172 -91 1784 -91 
Q 1150 -91 751 415 
Q 353 922 353 1747 
Q 353 2572 751 3078 
Q 1150 3584 1784 3584 
Q 2172 3584 2448 3432 
Q 2725 3281 2906 2969 
z
M 947 1747 
Q 947 1113 1208 752 
Q 1469 391 1925 391 
Q 2381 391 2643 752 
Q 2906 1113 2906 1747 
Q 2906 2381 2643 2742 
Q 2381 3103 1925 3103 
Q 1469 3103 1208 2742 
Q 947 2381 947 1747 
z
" transform="scale(0.015625)"/>
       <path id="DejaVuSans-65" d="M 3597 1894 
L 3597 1613 
L 953 1613 
Q 991 1019 1311 708 
Q 1631 397 2203 397 
Q 2534 397 2845 478 
Q 3156 559 3463 722 
L 3463 178 
Q 3153 47 2828 -22 
Q 2503 -91 2169 -91 
Q 1331 -91 842 396 
Q 353 884 353 1716 
Q 353 2575 817 3079 
Q 1281 3584 2069 3584 
Q 2775 3584 3186 3129 
Q 3597 2675 3597 1894 
z
M 3022 2063 
Q 3016 2534 2758 2815 
Q 2500 3097 2075 3097 
Q 1594 3097 1305 2825 
Q 1016 2553 972 2059 
L 3022 2063 
z
" transform="scale(0.015625)"/>
       <path id="DejaVuSans-2f" d="M 1625 4666 
L 2156 4666 
L 531 -594 
L 0 -594 
L 1625 4666 
z
" transform="scale(0.015625)"/>
       <path id="DejaVuSans-45" d="M 628 4666 
L 3578 4666 
L 3578 4134 
L 1259 4134 
L 1259 2753 
L 3481 2753 
L 3481 2222 
L 1259 2222 
L 1259 531 
L 3634 531 
L 3634 0 
L 628 0 
L 628 4666 
z
" transform="scale(0.015625)"/>
       <path id="DejaVuSans-78" d="M 3513 3500 
L 2247 1797 
L 3578 0 
L 2900 0 
L 1881 1375 
L 863 0 
L 184 0 
L 1544 1831 
L 300 3500 
L 978 3500 
L 1906 2253 
L 2834 3500 
L 3513 3500 
z
" transform="scale(0.015625)"/>
       <path id="DejaVuSans-e7" d="M 3122 3366 
L 3122 2828 
Q 2878 2963 2633 3030 
Q 2388 3097 2138 3097 
Q 1578 3097 1268 2742 
Q 959 2388 959 1747 
Q 959 1106 1268 751 
Q 1578 397 2138 397 
Q 2388 397 2633 464 
Q 2878 531 3122 666 
L 3122 134 
Q 2881 22 2623 -34 
Q 2366 -91 2075 -91 
Q 1284 -91 818 406 
Q 353 903 353 1747 
Q 353 2603 823 3093 
Q 1294 3584 2113 3584 
Q 2378 3584 2631 3529 
Q 2884 3475 3122 3366 
z
M 2311 0 
Q 2482 -194 2566 -358 
Q 2651 -522 2651 -672 
Q 2651 -950 2463 -1092 
Q 2276 -1234 1907 -1234 
Q 1764 -1234 1628 -1215 
Q 1492 -1197 1357 -1159 
L 1357 -750 
Q 1464 -803 1579 -826 
Q 1695 -850 1842 -850 
Q 2026 -850 2120 -775 
Q 2214 -700 2214 -556 
Q 2214 -463 2146 -327 
Q 2079 -191 1939 0 
L 2311 0 
z
" transform="scale(0.015625)"/>
       <path id="DejaVuSans-e3" d="M 2194 1759 
Q 1497 1759 1228 1600 
Q 959 1441 959 1056 
Q 959 750 1161 570 
Q 1363 391 1709 391 
Q 2188 391 2477 730 
Q 2766 1069 2766 1631 
L 2766 1759 
L 2194 1759 
z
M 3341 1997 
L 3341 0 
L 2766 0 
L 2766 531 
Q 2569 213 2275 61 
Q 1981 -91 1556 -91 
Q 1019 -91 701 211 
Q 384 513 384 1019 
Q 384 1609 779 1909 
Q 1175 2209 1959 2209 
L 2766 2209 
L 2766 2266 
Q 2766 2663 2505 2880 
Q 2244 3097 1772 3097 
Q 1472 3097 1187 3025 
Q 903 2953 641 2809 
L 641 3341 
Q 956 3463 1253 3523 
Q 1550 3584 1831 3584 
Q 2591 3584 2966 3190 
Q 3341 2797 3341 1997 
z
M 1844 4281 
L 1665 4453 
Q 1597 4516 1545 4545 
Q 1494 4575 1453 4575 
Q 1334 4575 1278 4461 
Q 1222 4347 1215 4091 
L 825 4091 
Q 831 4513 990 4742 
Q 1150 4972 1434 4972 
Q 1553 4972 1653 4928 
Q 1753 4884 1869 4781 
L 2047 4609 
Q 2115 4547 2167 4517 
Q 2219 4488 2259 4488 
Q 2378 4488 2434 4602 
Q 2490 4716 2497 4972 
L 2887 4972 
Q 2881 4550 2721 4320 
Q 2562 4091 2278 4091 
Q 2159 4091 2059 4134 
Q 1959 4178 1844 4281 
z
" transform="scale(0.015625)"/>
      </defs>
      <use xlink:href="#DejaVuSans-50"/>
      <use xlink:href="#DejaVuSans-72" x="58.552734"/>
      <use xlink:href="#DejaVuSans-6f" x="97.416016"/>
      <use xlink:href="#DejaVuSans-62" x="158.597656"/>
      <use xlink:href="#DejaVuSans-61" x="222.074219"/>
      <use xlink:href="#DejaVuSans-62" x="283.353516"/>
      <use xlink:href="#DejaVuSans-69" x="346.830078"/>
      <use xlink:href="#DejaVuSans-6c" x="374.613281"/>
      <use xlink:href="#DejaVuSans-69" x="402.396484"/>
      <use xlink:href="#DejaVuSans-64" x="430.179688"/>
      <use xlink:href="#DejaVuSans-61" x="493.65625"/>
      <use xlink:href="#DejaVuSans-64" x="554.935547"/>
      <use xlink:href="#DejaVuSans-65" x="618.412109"/>
      <use xlink:href="#DejaVuSans-20" x="679.935547"/>
      <use xlink:href="#DejaVuSans-2f" x="711.722656"/>
      <use xlink:href="#DejaVuSans-20" x="745.414062"/>
      <use xlink:href="#DejaVuSans-45" x="777.201172"/>
      <use xlink:href="#DejaVuSans-78" x="840.384766"/>
      <use xlink:href="#DejaVuSans-70" x="899.564453"/>
      <use xlink:href="#DejaVuSans-6f" x="963.041016"/>
      <use xlink:href="#DejaVuSans-73" x="1024.222656"/>
      <use xlink:href="#DejaVuSans-69" x="1076.322266"/>
      <use xlink:href="#DejaVuSans-e7" x="1104.105469"/>
      <use xlink:href="#DejaVuSans-e3" x="1159.085938"/>
      <use xlink:href="#DejaVuSans-6f" x="1220.365234"/>
      <use xlink:href="#DejaVuSans-20" x="1281.546875"/>
      <use xlink:href="#DejaVuSans-28" x="1313.333984"/>
      <use xlink:href="#DejaVuSans-31" x="1352.347656"/>
      <use xlink:href="#DejaVuSans-2013" x="1415.970703"/>
      <use xlink:href="#DejaVuSans-35" x="1465.970703"/>
      <use xlink:href="#DejaVuSans-29" x="1529.59375"/>
     </g>
    </g>
   </g>
   <g id="patch_3">
    <path d="M 34.153125 313.337969 
L 34.153125 32.597969 
" style="fill: none; stroke: #1a1a1a; stroke-linejoin: miter; stroke-linecap: square"/>
   </g>
   <g id="patch_4">
    <path d="M 34.153125 313.337969 
L 415.843125 313.337969 
" style="fill: none; stroke: #1a1a1a; stroke-linejoin: miter; stroke-linecap: square"/>
   </g>
   <g id="text_13">
    <!-- Locação -->
    <g style="fill: #333333" transform="translate(361.319125 116.235988) scale(0.08 -0.08)">
     <defs>
      <path id="DejaVuSans-4c" d="M 628 4666 
L 1259 4666 
L 1259 531 
L 3531 531 
L 3531 0 
L 628 0 
L 628 4666 
z
" transform="scale(0.015625)"/>
     </defs>
     <use xlink:href="#DejaVuSans-4c"/>
     <use xlink:href="#DejaVuSans-6f" x="53.962891"/>
     <use xlink:href="#DejaVuSans-63" x="115.144531"/>
     <use xlink:href="#DejaVuSans-61" x="170.125"/>
     <use xlink:href="#DejaVuSans-e7" x="231.404297"/>
     <use xlink:href="#DejaVuSans-e3" x="286.384766"/>
     <use xlink:href="#DejaVuSans-6f" x="347.664062"/>
    </g>
   </g>
   <g id="text_14">
    <!-- Industrialização -->
    <g style="fill: #333333" transform="translate(269.81675 161.2662) scale(0.08 -0.08)">
     <defs>
      <path id="DejaVuSans-6e" d="M 3513 2113 
L 3513 0 
L 2938 0 
L 2938 2094 
Q 2938 2591 2744 2837 
Q 2550 3084 2163 3084 
Q 1697 3084 1428 2787 
Q 1159 2491 1159 1978 
L 1159 0 
L 581 0 
L 581 3500 
L 1159 3500 
L 1159 2956 
Q 1366 3272 1645 3428 
Q 1925 3584 2291 3584 
Q 2894 3584 3203 3211 
Q 3513 2838 3513 2113 
z
" transform="scale(0.015625)"/>
      <path id="DejaVuSans-75" d="M 544 1381 
L 544 3500 
L 1119 3500 
L 1119 1403 
Q 1119 906 1312 657 
Q 1506 409 1894 409 
Q 2359 409 2629 706 
Q 2900 1003 2900 1516 
L 2900 3500 
L 3475 3500 
L 3475 0 
L 2900 0 
L 2900 538 
Q 2691 219 2414 64 
Q 2138 -91 1772 -91 
Q 1169 -91 856 284 
Q 544 659 544 1381 
z
M 1991 3584 
L 1991 3584 
z
" transform="scale(0.015625)"/>
      <path id="DejaVuSans-7a" d="M 353 3500 
L 3084 3500 
L 3084 2975 
L 922 459 
L 3084 459 
L 3084 0 
L 275 0 
L 275 525 
L 2438 3041 
L 353 3041 
L 353 3500 
z
" transform="scale(0.015625)"/>
     </defs>
     <use xlink:href="#DejaVuSans-49"/>
     <use xlink:href="#DejaVuSans-6e" x="29.492188"/>
     <use xlink:href="#DejaVuSans-64" x="92.871094"/>
     <use xlink:href="#DejaVuSans-75" x="156.347656"/>
     <use xlink:href="#DejaVuSans-73" x="219.726562"/>
     <use xlink:href="#DejaVuSans-74" x="271.826172"/>
     <use xlink:href="#DejaVuSans-72" x="311.035156"/>
     <use xlink:href="#DejaVuSans-69" x="352.148438"/>
     <use xlink:href="#DejaVuSans-61" x="379.931641"/>
     <use xlink:href="#DejaVuSans-6c" x="441.210938"/>
     <use xlink:href="#DejaVuSans-69" x="468.994141"/>
     <use xlink:href="#DejaVuSans-7a" x="496.777344"/>
     <use xlink:href="#DejaVuSans-61" x="549.267578"/>
     <use xlink:href="#DejaVuSans-e7" x="610.546875"/>
     <use xlink:href="#DejaVuSans-e3" x="665.527344"/>
     <use xlink:href="#DejaVuSans-6f" x="726.806641"/>
    </g>
    <!-- por encomenda -->
    <g style="fill: #333333" transform="translate(269.907375 170.22445) scale(0.08 -0.08)">
     <use xlink:href="#DejaVuSans-70"/>
     <use xlink:href="#DejaVuSans-6f" x="63.476562"/>
     <use xlink:href="#DejaVuSans-72" x="124.658203"/>
     <use xlink:href="#DejaVuSans-20" x="165.771484"/>
     <use xlink:href="#DejaVuSans-65" x="197.558594"/>
     <use xlink:href="#DejaVuSans-6e" x="259.082031"/>
     <use xlink:href="#DejaVuSans-63" x="322.460938"/>
     <use xlink:href="#DejaVuSans-6f" x="377.441406"/>
     <use xlink:href="#DejaVuSans-6d" x="438.623047"/>
     <use xlink:href="#DejaVuSans-65" x="536.035156"/>
     <use xlink:href="#DejaVuSans-6e" x="597.558594"/>
     <use xlink:href="#DejaVuSans-64" x="660.9375"/>
     <use xlink:href="#DejaVuSans-61" x="724.414062"/>
    </g>
   </g>
   <g id="text_15">
    <!-- Operações -->
    <g style="fill: #333333" transform="translate(203.56125 215.254661) scale(0.08 -0.08)">
     <defs>
      <path id="DejaVuSans-4f" d="M 2522 4238 
Q 1834 4238 1429 3725 
Q 1025 3213 1025 2328 
Q 1025 1447 1429 934 
Q 1834 422 2522 422 
Q 3209 422 3611 934 
Q 4013 1447 4013 2328 
Q 4013 3213 3611 3725 
Q 3209 4238 2522 4238 
z
M 2522 4750 
Q 3503 4750 4090 4092 
Q 4678 3434 4678 2328 
Q 4678 1225 4090 567 
Q 3503 -91 2522 -91 
Q 1538 -91 948 565 
Q 359 1222 359 2328 
Q 359 3434 948 4092 
Q 1538 4750 2522 4750 
z
" transform="scale(0.015625)"/>
      <path id="DejaVuSans-f5" d="M 1959 3097 
Q 1497 3097 1228 2736 
Q 959 2375 959 1747 
Q 959 1119 1226 758 
Q 1494 397 1959 397 
Q 2419 397 2687 759 
Q 2956 1122 2956 1747 
Q 2956 2369 2687 2733 
Q 2419 3097 1959 3097 
z
M 1959 3584 
Q 2709 3584 3137 3096 
Q 3566 2609 3566 1747 
Q 3566 888 3137 398 
Q 2709 -91 1959 -91 
Q 1206 -91 779 398 
Q 353 888 353 1747 
Q 353 2609 779 3096 
Q 1206 3584 1959 3584 
z
M 1948 4281 
L 1769 4453 
Q 1701 4516 1649 4545 
Q 1598 4575 1557 4575 
Q 1438 4575 1382 4461 
Q 1326 4347 1319 4091 
L 929 4091 
Q 935 4513 1094 4742 
Q 1254 4972 1538 4972 
Q 1657 4972 1757 4928 
Q 1857 4884 1973 4781 
L 2151 4609 
Q 2219 4547 2271 4517 
Q 2323 4488 2363 4488 
Q 2482 4488 2538 4602 
Q 2594 4716 2601 4972 
L 2991 4972 
Q 2985 4550 2825 4320 
Q 2666 4091 2382 4091 
Q 2263 4091 2163 4134 
Q 2063 4178 1948 4281 
z
" transform="scale(0.015625)"/>
     </defs>
     <use xlink:href="#DejaVuSans-4f"/>
     <use xlink:href="#DejaVuSans-70" x="78.710938"/>
     <use xlink:href="#DejaVuSans-65" x="142.1875"/>
     <use xlink:href="#DejaVuSans-72" x="203.710938"/>
     <use xlink:href="#DejaVuSans-61" x="244.824219"/>
     <use xlink:href="#DejaVuSans-e7" x="306.103516"/>
     <use xlink:href="#DejaVuSans-f5" x="361.083984"/>
     <use xlink:href="#DejaVuSans-65" x="422.265625"/>
     <use xlink:href="#DejaVuSans-73" x="483.789062"/>
    </g>
    <!-- não onerosas -->
    <g style="fill: #333333" transform="translate(198.22875 224.212911) scale(0.08 -0.08)">
     <use xlink:href="#DejaVuSans-6e"/>
     <use xlink:href="#DejaVuSans-e3" x="63.378906"/>
     <use xlink:href="#DejaVuSans-6f" x="124.658203"/>
     <use xlink:href="#DejaVuSans-20" x="185.839844"/>
     <use xlink:href="#DejaVuSans-6f" x="217.626953"/>
     <use xlink:href="#DejaVuSans-6e" x="278.808594"/>
     <use xlink:href="#DejaVuSans-65" x="342.1875"/>
     <use xlink:href="#DejaVuSans-72" x="403.710938"/>
     <use xlink:href="#DejaVuSans-6f" x="442.574219"/>
     <use xlink:href="#DejaVuSans-73" x="503.755859"/>
     <use xlink:href="#DejaVuSans-61" x="555.855469"/>
     <use xlink:href="#DejaVuSans-73" x="617.134766"/>
    </g>
   </g>
   <g id="text_16">
    <!-- Serviços -->
    <g style="fill: #333333" transform="translate(284.48175 116.235988) scale(0.08 -0.08)">
     <defs>
      <path id="DejaVuSans-53" d="M 3425 4513 
L 3425 3897 
Q 3066 4069 2747 4153 
Q 2428 4238 2131 4238 
Q 1616 4238 1336 4038 
Q 1056 3838 1056 3469 
Q 1056 3159 1242 3001 
Q 1428 2844 1947 2747 
L 2328 2669 
Q 3034 2534 3370 2195 
Q 3706 1856 3706 1288 
Q 3706 609 3251 259 
Q 2797 -91 1919 -91 
Q 1588 -91 1214 -16 
Q 841 59 441 206 
L 441 856 
Q 825 641 1194 531 
Q 1563 422 1919 422 
Q 2459 422 2753 634 
Q 3047 847 3047 1241 
Q 3047 1584 2836 1778 
Q 2625 1972 2144 2069 
L 1759 2144 
Q 1053 2284 737 2584 
Q 422 2884 422 3419 
Q 422 4038 858 4394 
Q 1294 4750 2059 4750 
Q 2388 4750 2728 4690 
Q 3069 4631 3425 4513 
z
" transform="scale(0.015625)"/>
      <path id="DejaVuSans-76" d="M 191 3500 
L 800 3500 
L 1894 563 
L 2988 3500 
L 3597 3500 
L 2284 0 
L 1503 0 
L 191 3500 
z
" transform="scale(0.015625)"/>
     </defs>
     <use xlink:href="#DejaVuSans-53"/>
     <use xlink:href="#DejaVuSans-65" x="63.476562"/>
     <use xlink:href="#DejaVuSans-72" x="125"/>
     <use xlink:href="#DejaVuSans-76" x="166.113281"/>
     <use xlink:href="#DejaVuSans-69" x="225.292969"/>
     <use xlink:href="#DejaVuSans-e7" x="253.076172"/>
     <use xlink:href="#DejaVuSans-6f" x="308.056641"/>
     <use xlink:href="#DejaVuSans-73" x="369.238281"/>
    </g>
   </g>
   <g id="text_17">
    <!-- Diferimento PR -->
    <g style="fill: #333333" transform="translate(347.48725 62.247526) scale(0.08 -0.08)">
     <defs>
      <path id="DejaVuSans-44" d="M 1259 4147 
L 1259 519 
L 2022 519 
Q 2988 519 3436 956 
Q 3884 1394 3884 2338 
Q 3884 3275 3436 3711 
Q 2988 4147 2022 4147 
L 1259 4147 
z
M 628 4666 
L 1925 4666 
Q 3281 4666 3915 4102 
Q 4550 3538 4550 2338 
Q 4550 1131 3912 565 
Q 3275 0 1925 0 
L 628 0 
L 628 4666 
z
" transform="scale(0.015625)"/>
      <path id="DejaVuSans-66" d="M 2375 4863 
L 2375 4384 
L 1825 4384 
Q 1516 4384 1395 4259 
Q 1275 4134 1275 3809 
L 1275 3500 
L 2222 3500 
L 2222 3053 
L 1275 3053 
L 1275 0 
L 697 0 
L 697 3053 
L 147 3053 
L 147 3500 
L 697 3500 
L 697 3744 
Q 697 4328 969 4595 
Q 1241 4863 1831 4863 
L 2375 4863 
z
" transform="scale(0.015625)"/>
      <path id="DejaVuSans-52" d="M 2841 2188 
Q 3044 2119 3236 1894 
Q 3428 1669 3622 1275 
L 4263 0 
L 3584 0 
L 2988 1197 
Q 2756 1666 2539 1819 
Q 2322 1972 1947 1972 
L 1259 1972 
L 1259 0 
L 628 0 
L 628 4666 
L 2053 4666 
Q 2853 4666 3247 4331 
Q 3641 3997 3641 3322 
Q 3641 2881 3436 2590 
Q 3231 2300 2841 2188 
z
M 1259 4147 
L 1259 2491 
L 2053 2491 
Q 2509 2491 2742 2702 
Q 2975 2913 2975 3322 
Q 2975 3731 2742 3939 
Q 2509 4147 2053 4147 
L 1259 4147 
z
" transform="scale(0.015625)"/>
     </defs>
     <use xlink:href="#DejaVuSans-44"/>
     <use xlink:href="#DejaVuSans-69" x="77.001953"/>
     <use xlink:href="#DejaVuSans-66" x="104.785156"/>
     <use xlink:href="#DejaVuSans-65" x="139.990234"/>
     <use xlink:href="#DejaVuSans-72" x="201.513672"/>
     <use xlink:href="#DejaVuSans-69" x="242.626953"/>
     <use xlink:href="#DejaVuSans-6d" x="270.410156"/>
     <use xlink:href="#DejaVuSans-65" x="367.822266"/>
     <use xlink:href="#DejaVuSans-6e" x="429.345703"/>
     <use xlink:href="#DejaVuSans-74" x="492.724609"/>
     <use xlink:href="#DejaVuSans-6f" x="531.933594"/>
     <use xlink:href="#DejaVuSans-20" x="593.115234"/>
     <use xlink:href="#DejaVuSans-50" x="624.902344"/>
     <use xlink:href="#DejaVuSans-52" x="685.205078"/>
    </g>
   </g>
   <g id="text_18">
    <!-- Mapa de Risco das Operações Críticas -->
    <g style="fill: #333333" transform="translate(100.9375 17.597969) scale(0.13 -0.13)">
     <defs>
      <path id="DejaVuSans-4d" d="M 628 4666 
L 1569 4666 
L 2759 1491 
L 3956 4666 
L 4897 4666 
L 4897 0 
L 4281 0 
L 4281 4097 
L 3078 897 
L 2444 897 
L 1241 4097 
L 1241 0 
L 628 0 
L 628 4666 
z
" transform="scale(0.015625)"/>
      <path id="DejaVuSans-43" d="M 4122 4306 
L 4122 3641 
Q 3803 3938 3442 4084 
Q 3081 4231 2675 4231 
Q 1875 4231 1450 3742 
Q 1025 3253 1025 2328 
Q 1025 1406 1450 917 
Q 1875 428 2675 428 
Q 3081 428 3442 575 
Q 3803 722 4122 1019 
L 4122 359 
Q 3791 134 3420 21 
Q 3050 -91 2638 -91 
Q 1578 -91 968 557 
Q 359 1206 359 2328 
Q 359 3453 968 4101 
Q 1578 4750 2638 4750 
Q 3056 4750 3426 4639 
Q 3797 4528 4122 4306 
z
" transform="scale(0.015625)"/>
      <path id="DejaVuSans-ed" d="M 1322 5119 
L 1944 5119 
L 926 3944 
L 447 3944 
L 1322 5119 
z
M 603 3500 
L 1178 3500 
L 1178 0 
L 603 0 
L 603 3500 
z
M 891 3584 
L 891 3584 
z
" transform="scale(0.015625)"/>
     </defs>
     <use xlink:href="#DejaVuSans-4d"/>
     <use xlink:href="#DejaVuSans-61" x="86.279297"/>
     <use xlink:href="#DejaVuSans-70" x="147.558594"/>
     <use xlink:href="#DejaVuSans-61" x="211.035156"/>
     <use xlink:href="#DejaVuSans-20" x="272.314453"/>
     <use xlink:href="#DejaVuSans-64" x="304.101562"/>
     <use xlink:href="#DejaVuSans-65" x="367.578125"/>
     <use xlink:href="#DejaVuSans-20" x="429.101562"/>
     <use xlink:href="#DejaVuSans-52" x="460.888672"/>
     <use xlink:href="#DejaVuSans-69" x="530.371094"/>
     <use xlink:href="#DejaVuSans-73" x="558.154297"/>
     <use xlink:href="#DejaVuSans-63" x="610.253906"/>
     <use xlink:href="#DejaVuSans-6f" x="665.234375"/>
     <use xlink:href="#DejaVuSans-20" x="726.416016"/>
     <use xlink:href="#DejaVuSans-64" x="758.203125"/>
     <use xlink:href="#DejaVuSans-61" x="821.679688"/>
     <use xlink:href="#DejaVuSans-73" x="882.958984"/>
     <use xlink:href="#DejaVuSans-20" x="935.058594"/>
     <use xlink:href="#DejaVuSans-4f" x="966.845703"/>
     <use xlink:href="#DejaVuSans-70" x="1045.556641"/>
     <use xlink:href="#DejaVuSans-65" x="1109.033203"/>
     <use xlink:href="#DejaVuSans-72" x="1170.556641"/>
     <use xlink:href="#DejaVuSans-61" x="1211.669922"/>
     <use xlink:href="#DejaVuSans-e7" x="1272.949219"/>
     <use xlink:href="#DejaVuSans-f5" x="1327.929688"/>
     <use xlink:href="#DejaVuSans-65" x="1389.111328"/>
     <use xlink:href="#DejaVuSans-73" x="1450.634766"/>
     <use xlink:href="#DejaVuSans-20" x="1502.734375"/>
     <use xlink:href="#DejaVuSans-43" x="1534.521484"/>
     <use xlink:href="#DejaVuSans-72" x="1604.345703"/>
     <use xlink:href="#DejaVuSans-ed" x="1645.458984"/>
     <use xlink:href="#DejaVuSans-74" x="1673.242188"/>
     <use xlink:href="#DejaVuSans-69" x="1712.451172"/>
     <use xlink:href="#DejaVuSans-63" x="1740.234375"/>
     <use xlink:href="#DejaVuSans-61" x="1795.214844"/>
     <use xlink:href="#DejaVuSans-73" x="1856.494141"/>
    </g>
   </g>
   <g id="legend_1">
    <g id="patch_5">
     <path d="M 41.853125 89.835781 
L 144.010469 89.835781 
Q 146.210469 89.835781 146.210469 87.635781 
L 146.210469 40.297969 
Q 146.210469 38.097969 144.010469 38.097969 
L 41.853125 38.097969 
Q 39.653125 38.097969 39.653125 40.297969 
L 39.653125 87.635781 
Q 39.653125 89.835781 41.853125 89.835781 
z
" style="fill: #ffffff; opacity: 0.8; stroke: #cccccc; stroke-linejoin: miter"/>
    </g>
    <g id="patch_6">
     <path d="M 44.053125 50.85625 
L 66.053125 50.85625 
L 66.053125 43.15625 
L 44.053125 43.15625 
z
" style="fill: #c00000; stroke: #c00000; stroke-linejoin: miter"/>
    </g>
    <g id="text_19">
     <!-- Risco alto -->
     <g style="fill: #333333" transform="translate(74.853125 50.85625) scale(0.11 -0.11)">
      <use xlink:href="#DejaVuSans-52"/>
      <use xlink:href="#DejaVuSans-69" x="69.482422"/>
      <use xlink:href="#DejaVuSans-73" x="97.265625"/>
      <use xlink:href="#DejaVuSans-63" x="149.365234"/>
      <use xlink:href="#DejaVuSans-6f" x="204.345703"/>
      <use xlink:href="#DejaVuSans-20" x="265.527344"/>
      <use xlink:href="#DejaVuSans-61" x="297.314453"/>
      <use xlink:href="#DejaVuSans-6c" x="358.59375"/>
      <use xlink:href="#DejaVuSans-74" x="386.376953"/>
      <use xlink:href="#DejaVuSans-6f" x="425.585938"/>
     </g>
    </g>
    <g id="patch_7">
     <path d="M 44.053125 67.002188 
L 66.053125 67.002188 
L 66.053125 59.302188 
L 44.053125 59.302188 
z
" style="fill: #ffc000; stroke: #ffc000; stroke-linejoin: miter"/>
    </g>
    <g id="text_20">
     <!-- Risco médio -->
     <g style="fill: #333333" transform="translate(74.853125 67.002188) scale(0.11 -0.11)">
      <defs>
       <path id="DejaVuSans-e9" d="M 3597 1894 
L 3597 1613 
L 953 1613 
Q 991 1019 1311 708 
Q 1631 397 2203 397 
Q 2534 397 2845 478 
Q 3156 559 3463 722 
L 3463 178 
Q 3153 47 2828 -22 
Q 2503 -91 2169 -91 
Q 1331 -91 842 396 
Q 353 884 353 1716 
Q 353 2575 817 3079 
Q 1281 3584 2069 3584 
Q 2775 3584 3186 3129 
Q 3597 2675 3597 1894 
z
M 3022 2063 
Q 3016 2534 2758 2815 
Q 2500 3097 2075 3097 
Q 1594 3097 1305 2825 
Q 1016 2553 972 2059 
L 3022 2063 
z
M 2466 5119 
L 3088 5119 
L 2070 3944 
L 1591 3944 
L 2466 5119 
z
" transform="scale(0.015625)"/>
      </defs>
      <use xlink:href="#DejaVuSans-52"/>
      <use xlink:href="#DejaVuSans-69" x="69.482422"/>
      <use xlink:href="#DejaVuSans-73" x="97.265625"/>
      <use xlink:href="#DejaVuSans-63" x="149.365234"/>
      <use xlink:href="#DejaVuSans-6f" x="204.345703"/>
      <use xlink:href="#DejaVuSans-20" x="265.527344"/>
      <use xlink:href="#DejaVuSans-6d" x="297.314453"/>
      <use xlink:href="#DejaVuSans-e9" x="394.726562"/>
      <use xlink:href="#DejaVuSans-64" x="456.25"/>
      <use xlink:href="#DejaVuSans-69" x="519.726562"/>
      <use xlink:href="#DejaVuSans-6f" x="547.509766"/>
     </g>
    </g>
    <g id="patch_8">
     <path d="M 44.053125 83.148125 
L 66.053125 83.148125 
L 66.053125 75.448125 
L 44.053125 75.448125 
z
" style="fill: #008d36; stroke: #008d36; stroke-linejoin: miter"/>
    </g>
    <g id="text_21">
     <!-- Risco baixo -->
     <g style="fill: #333333" transform="translate(74.853125 83.148125) scale(0.11 -0.11)">
      <use xlink:href="#DejaVuSans-52"/>
      <use xlink:href="#DejaVuSans-69" x="69.482422"/>
      <use xlink:href="#DejaVuSans-73" x="97.265625"/>
      <use xlink:href="#DejaVuSans-63" x="149.365234"/>
      <use xlink:href="#DejaVuSans-6f" x="204.345703"/>
      <use xlink:href="#DejaVuSans-20" x="265.527344"/>
      <use xlink:href="#DejaVuSans-62" x="297.314453"/>
      <use xlink:href="#DejaVuSans-61" x="360.791016"/>
      <use xlink:href="#DejaVuSans-69" x="422.070312"/>
      <use xlink:href="#DejaVuSans-78" x="449.853516"/>
      <use xlink:href="#DejaVuSans-6f" x="505.908203"/>
     </g>
    </g>
   </g>
  </g>
 </g>
 <defs>
  <clipPath id="p0d01a7f4ee">
   <rect x="34.153125" y="32.597969" width="381.69" height="280.74"/>
  </clipPath>
 </defs>
</svg>
