<?xml version="1.0" encoding="utf-8" standalone="no"?>
<!DOCTYPE svg PUBLIC "-//W3C//DTD SVG 1.1//EN"
  "http://www.w3.org/Graphics/SVG/1.1/DTD/svg11.dtd">
<svg xmlns:xlink="http://www.w3.org/1999/xlink" width="515.111172pt" height="207.139375pt" viewBox="0 0 515.111172 207.139375" xmlns="http://www.w3.org/2000/svg" version="1.1">
 <metadata>
  <rdf:RDF xmlns:dc="http://purl.org/dc/elements/1.1/" xmlns:cc="http://creativecommons.org/ns#" xmlns:rdf="http://www.w3.org/1999/02/22-rdf-syntax-ns#">
   <cc:Work>
    <dc:type rdf:resource="http://purl.org/dc/dcmitype/StillImage"/>
    <dc:date>2025-12-06T20:27:42.197273</dc:date>
    <dc:format>image/svg+xml</dc:format>
    <dc:creator>
     <cc:Agent>
      <dc:title>Matplotlib v3.6.3, https://matplotlib.org/</dc:title>
     </cc:Agent>
    </dc:creator>
   </cc:Work>
  </rdf:RDF>
 </metadata>
 <defs>
  <style type="text/css">*{stroke-linejoin: round; stroke-linecap: butt}</style>
 </defs>
 <g id="figure_1">
  <g id="patch_1">
   <path d="M 0 207.139375 
L 515.111172 207.139375 
L 515.111172 0 
L 0 0 
z
" style="fill: #ffffff"/>
  </g>
  <g id="axes_1">
   <g id="patch_2">
    <path d="M 212.200625 199.939375 
L 486.740625 199.939375 
L 486.740625 32.299375 
L 212.200625 32.299375 
z
" style="fill: #ffffff"/>
   </g>
   <g id="patch_3">
    <path d="M 212.200625 192.319375 
L 486.740625 192.319375 
L 486.740625 171.298685 
L 212.200625 171.298685 
z
" clip-path="url(#p586d9b3a8a)" style="fill: #008d36"/>
   </g>
   <g id="patch_4">
    <path d="M 212.200625 166.043513 
L 486.740625 166.043513 
L 486.740625 145.022823 
L 212.200625 145.022823 
z
" clip-path="url(#p586d9b3a8a)" style="fill: #ffc000"/>
   </g>
   <g id="patch_5">
    <path d="M 212.200625 139.767651 
L 486.740625 139.767651 
L 486.740625 118.746961 
L 212.200625 118.746961 
z
" clip-path="url(#p586d9b3a8a)" style="fill: #ffc000"/>
   </g>
   <g id="patch_6">
    <path d="M 212.200625 113.491789 
L 486.740625 113.491789 
L 486.740625 92.471099 
L 212.200625 92.471099 
z
" clip-path="url(#p586d9b3a8a)" style="fill: #008d36"/>
   </g>
   <g id="patch_7">
    <path d="M 212.200625 87.215927 
L 486.740625 87.215927 
L 486.740625 66.195237 
L 212.200625 66.195237 
z
" clip-path="url(#p586d9b3a8a)" style="fill: #f8a300"/>
   </g>
   <g id="patch_8">
    <path d="M 212.200625 60.940065 
L 486.740625 60.940065 
L 486.740625 39.919375 
L 212.200625 39.919375 
z
" clip-path="url(#p586d9b3a8a)" style="fill: #c00000"/>
   </g>
   <g id="matplotlib.axis_1"/>
   <g id="matplotlib.axis_2">
    <g id="ytick_1">
     <g id="line2d_1">
      <path d="M 212.200625 181.80903 
L 486.740625 181.80903 
" clip-path="url(#p586d9b3a8a)" style="fill: none; stroke-dasharray: 2.22,0.96; stroke-dashoffset: 0; stroke: #b0b0b0; stroke-opacity: 0.7; stroke-width: 0.6"/>
     </g>
     <g id="line2d_2">
      <defs>
       <path id="mca9a4174da" d="M 0 0 
L 3.5 0 
" style="stroke: #1a1a1a; stroke-width: 0.8"/>
      </defs>
      <g>
       <use xlink:href="#mca9a4174da" x="212.200625" y="181.80903" style="fill: #1a1a1a; stroke: #1a1a1a; stroke-width: 0.8"/>
      </g>
     </g>
     <g id="text_1">
      <!-- % cenários mapeados -->
      <g style="fill: #1a1a1a" transform="translate(76.26 186.608093) scale(0.12 -0.12)">
       <defs>
        <path id="DejaVuSans-25" d="M 4653 2053 
Q 4381 2053 4226 1822 
Q 4072 1591 4072 1178 
Q 4072 772 4226 539 
Q 4381 306 4653 306 
Q 4919 306 5073 539 
Q 5228 772 5228 1178 
Q 5228 1588 5073 1820 
Q 4919 2053 4653 2053 
z
M 4653 2450 
Q 5147 2450 5437 2106 
Q 5728 1763 5728 1178 
Q 5728 594 5436 251 
Q 5144 -91 4653 -91 
Q 4153 -91 3862 251 
Q 3572 594 3572 1178 
Q 3572 1766 3864 2108 
Q 4156 2450 4653 2450 
z
M 1428 4353 
Q 1159 4353 1004 4120 
Q 850 3888 850 3481 
Q 850 3069 1003 2837 
Q 1156 2606 1428 2606 
Q 1700 2606 1854 2837 
Q 2009 3069 2009 3481 
Q 2009 3884 1853 4118 
Q 1697 4353 1428 4353 
z
M 4250 4750 
L 4750 4750 
L 1831 -91 
L 1331 -91 
L 4250 4750 
z
M 1428 4750 
Q 1922 4750 2215 4408 
Q 2509 4066 2509 3481 
Q 2509 2891 2217 2550 
Q 1925 2209 1428 2209 
Q 931 2209 642 2551 
Q 353 2894 353 3481 
Q 353 4063 643 4406 
Q 934 4750 1428 4750 
z
" transform="scale(0.015625)"/>
        <path id="DejaVuSans-20" transform="scale(0.015625)"/>
        <path id="DejaVuSans-63" d="M 3122 3366 
L 3122 2828 
Q 2878 2963 2633 3030 
Q 2388 3097 2138 3097 
Q 1578 3097 1268 2742 
Q 959 2388 959 1747 
Q 959 1106 1268 751 
Q 1578 397 2138 397 
Q 2388 397 2633 464 
Q 2878 531 3122 666 
L 3122 134 
Q 2881 22 2623 -34 
Q 2366 -91 2075 -91 
Q 1284 -91 818 406 
Q 353 903 353 1747 
Q 353 2603 823 3093 
Q 1294 3584 2113 3584 
Q 2378 3584 2631 3529 
Q 2884 3475 3122 3366 
z
" transform="scale(0.015625)"/>
        <path id="DejaVuSans-65" d="M 3597 1894 
L 3597 1613 
L 953 1613 
Q 991 1019 1311 708 
Q 1631 397 2203 397 
Q 2534 397 2845 478 
Q 3156 559 3463 722 
L 3463 178 
Q 3153 47 2828 -22 
Q 2503 -91 2169 -91 
Q 1331 -91 842 396 
Q 353 884 353 1716 
Q 353 2575 817 3079 
Q 1281 3584 2069 3584 
Q 2775 3584 3186 3129 
Q 3597 2675 3597 1894 
z
M 3022 2063 
Q 3016 2534 2758 2815 
Q 2500 3097 2075 3097 
Q 1594 3097 1305 2825 
Q 1016 2553 972 2059 
L 3022 2063 
z
" transform="scale(0.015625)"/>
        <path id="DejaVuSans-6e" d="M 3513 2113 
L 3513 0 
L 2938 0 
L 2938 2094 
Q 2938 2591 2744 2837 
Q 2550 3084 2163 3084 
Q 1697 3084 1428 2787 
Q 1159 2491 1159 1978 
L 1159 0 
L 581 0 
L 581 3500 
L 1159 3500 
L 1159 2956 
Q 1366 3272 1645 3428 
Q 1925 3584 2291 3584 
Q 2894 3584 3203 3211 
Q 3513 2838 3513 2113 
z
" transform="scale(0.015625)"/>
        <path id="DejaVuSans-e1" d="M 2194 1759 
Q 1497 1759 1228 1600 
Q 959 1441 959 1056 
Q 959 750 1161 570 
Q 1363 391 1709 391 
Q 2188 391 2477 730 
Q 2766 1069 2766 1631 
L 2766 1759 
L 2194 1759 
z
M 3341 1997 
L 3341 0 
L 2766 0 
L 2766 531 
Q 2569 213 2275 61 
Q 1981 -91 1556 -91 
Q 1019 -91 701 211 
Q 384 513 384 1019 
Q 384 1609 779 1909 
Q 1175 2209 1959 2209 
L 2766 2209 
L 2766 2266 
Q 2766 2663 2505 2880 
Q 2244 3097 1772 3097 
Q 1472 3097 1187 3025 
Q 903 2953 641 2809 
L 641 3341 
Q 956 3463 1253 3523 
Q 1550 3584 1831 3584 
Q 2591 3584 2966 3190 
Q 3341 2797 3341 1997 
z
M 2290 5119 
L 2912 5119 
L 1894 3944 
L 1415 3944 
L 2290 5119 
z
" transform="scale(0.015625)"/>
        <path id="DejaVuSans-72" d="M 2631 2963 
Q 2534 3019 2420 3045 
Q 2306 3072 2169 3072 
Q 1681 3072 1420 2755 
Q 1159 2438 1159 1844 
L 1159 0 
L 581 0 
L 581 3500 
L 1159 3500 
L 1159 2956 
Q 1341 3275 1631 3429 
Q 1922 3584 2338 3584 
Q 2397 3584 2469 3576 
Q 2541 3569 2628 3553 
L 2631 2963 
z
" transform="scale(0.015625)"/>
        <path id="DejaVuSans-69" d="M 603 3500 
L 1178 3500 
L 1178 0 
L 603 0 
L 603 3500 
z
M 603 4863 
L 1178 4863 
L 1178 4134 
L 603 4134 
L 603 4863 
z
" transform="scale(0.015625)"/>
        <path id="DejaVuSans-6f" d="M 1959 3097 
Q 1497 3097 1228 2736 
Q 959 2375 959 1747 
Q 959 1119 1226 758 
Q 1494 397 1959 397 
Q 2419 397 2687 759 
Q 2956 1122 2956 1747 
Q 2956 2369 2687 2733 
Q 2419 3097 1959 3097 
z
M 1959 3584 
Q 2709 3584 3137 3096 
Q 3566 2609 3566 1747 
Q 3566 888 3137 398 
Q 2709 -91 1959 -91 
Q 1206 -91 779 398 
Q 353 888 353 1747 
Q 353 2609 779 3096 
Q 1206 3584 1959 3584 
z
" transform="scale(0.015625)"/>
        <path id="DejaVuSans-73" d="M 2834 3397 
L 2834 2853 
Q 2591 2978 2328 3040 
Q 2066 3103 1784 3103 
Q 1356 3103 1142 2972 
Q 928 2841 928 2578 
Q 928 2378 1081 2264 
Q 1234 2150 1697 2047 
L 1894 2003 
Q 2506 1872 2764 1633 
Q 3022 1394 3022 966 
Q 3022 478 2636 193 
Q 2250 -91 1575 -91 
Q 1294 -91 989 -36 
Q 684 19 347 128 
L 347 722 
Q 666 556 975 473 
Q 1284 391 1588 391 
Q 1994 391 2212 530 
Q 2431 669 2431 922 
Q 2431 1156 2273 1281 
Q 2116 1406 1581 1522 
L 1381 1569 
Q 847 1681 609 1914 
Q 372 2147 372 2553 
Q 372 3047 722 3315 
Q 1072 3584 1716 3584 
Q 2034 3584 2315 3537 
Q 2597 3491 2834 3397 
z
" transform="scale(0.015625)"/>
        <path id="DejaVuSans-6d" d="M 3328 2828 
Q 3544 3216 3844 3400 
Q 4144 3584 4550 3584 
Q 5097 3584 5394 3201 
Q 5691 2819 5691 2113 
L 5691 0 
L 5113 0 
L 5113 2094 
Q 5113 2597 4934 2840 
Q 4756 3084 4391 3084 
Q 3944 3084 3684 2787 
Q 3425 2491 3425 1978 
L 3425 0 
L 2847 0 
L 2847 2094 
Q 2847 2600 2669 2842 
Q 2491 3084 2119 3084 
Q 1678 3084 1418 2786 
Q 1159 2488 1159 1978 
L 1159 0 
L 581 0 
L 581 3500 
L 1159 3500 
L 1159 2956 
Q 1356 3278 1631 3431 
Q 1906 3584 2284 3584 
Q 2666 3584 2933 3390 
Q 3200 3197 3328 2828 
z
" transform="scale(0.015625)"/>
        <path id="DejaVuSans-61" d="M 2194 1759 
Q 1497 1759 1228 1600 
Q 959 1441 959 1056 
Q 959 750 1161 570 
Q 1363 391 1709 391 
Q 2188 391 2477 730 
Q 2766 1069 2766 1631 
L 2766 1759 
L 2194 1759 
z
M 3341 1997 
L 3341 0 
L 2766 0 
L 2766 531 
Q 2569 213 2275 61 
Q 1981 -91 1556 -91 
Q 1019 -91 701 211 
Q 384 513 384 1019 
Q 384 1609 779 1909 
Q 1175 2209 1959 2209 
L 2766 2209 
L 2766 2266 
Q 2766 2663 2505 2880 
Q 2244 3097 1772 3097 
Q 1472 3097 1187 3025 
Q 903 2953 641 2809 
L 641 3341 
Q 956 3463 1253 3523 
Q 1550 3584 1831 3584 
Q 2591 3584 2966 3190 
Q 3341 2797 3341 1997 
z
" transform="scale(0.015625)"/>
        <path id="DejaVuSans-70" d="M 1159 525 
L 1159 -1331 
L 581 -1331 
L 581 3500 
L 1159 3500 
L 1159 2969 
Q 1341 3281 1617 3432 
Q 1894 3584 2278 3584 
Q 2916 3584 3314 3078 
Q 3713 2572 3713 1747 
Q 3713 922 3314 415 
Q 2916 -91 2278 -91 
Q 1894 -91 1617 61 
Q 1341 213 1159 525 
z
M 3116 1747 
Q 3116 2381 2855 2742 
Q 2594 3103 2138 3103 
Q 1681 3103 1420 2742 
Q 1159 2381 1159 1747 
Q 1159 1113 1420 752 
Q 1681 391 2138 391 
Q 2594 391 2855 752 
Q 3116 1113 3116 1747 
z
" transform="scale(0.015625)"/>
        <path id="DejaVuSans-64" d="M 2906 2969 
L 2906 4863 
L 3481 4863 
L 3481 0 
L 2906 0 
L 2906 525 
Q 2725 213 2448 61 
Q 2172 -91 1784 -91 
Q 1150 -91 751 415 
Q 353 922 353 1747 
Q 353 2572 751 3078 
Q 1150 3584 1784 3584 
Q 2172 3584 2448 3432 
Q 2725 3281 2906 2969 
z
M 947 1747 
Q 947 1113 1208 752 
Q 1469 391 1925 391 
Q 2381 391 2643 752 
Q 2906 1113 2906 1747 
Q 2906 2381 2643 2742 
Q 2381 3103 1925 3103 
Q 1469 3103 1208 2742 
Q 947 2381 947 1747 
z
" transform="scale(0.015625)"/>
       </defs>
       <use xlink:href="#DejaVuSans-25"/>
       <use xlink:href="#DejaVuSans-20" x="95.019531"/>
       <use xlink:href="#DejaVuSans-63" x="126.806641"/>
       <use xlink:href="#DejaVuSans-65" x="181.787109"/>
       <use xlink:href="#DejaVuSans-6e" x="243.310547"/>
       <use xlink:href="#DejaVuSans-e1" x="306.689453"/>
       <use xlink:href="#DejaVuSans-72" x="367.96875"/>
       <use xlink:href="#DejaVuSans-69" x="409.082031"/>
       <use xlink:href="#DejaVuSans-6f" x="436.865234"/>
       <use xlink:href="#DejaVuSans-73" x="498.046875"/>
       <use xlink:href="#DejaVuSans-20" x="550.146484"/>
       <use xlink:href="#DejaVuSans-6d" x="581.933594"/>
       <use xlink:href="#DejaVuSans-61" x="679.345703"/>
       <use xlink:href="#DejaVuSans-70" x="740.625"/>
       <use xlink:href="#DejaVuSans-65" x="804.101562"/>
       <use xlink:href="#DejaVuSans-61" x="865.625"/>
       <use xlink:href="#DejaVuSans-64" x="926.904297"/>
       <use xlink:href="#DejaVuSans-6f" x="990.380859"/>
       <use xlink:href="#DejaVuSans-73" x="1051.5625"/>
      </g>
     </g>
    </g>
    <g id="ytick_2">
     <g id="line2d_3">
      <path d="M 212.200625 155.533168 
L 486.740625 155.533168 
" clip-path="url(#p586d9b3a8a)" style="fill: none; stroke-dasharray: 2.22,0.96; stroke-dashoffset: 0; stroke: #b0b0b0; stroke-opacity: 0.7; stroke-width: 0.6"/>
     </g>
     <g id="line2d_4">
      <g>
       <use xlink:href="#mca9a4174da" x="212.200625" y="155.533168" style="fill: #1a1a1a; stroke: #1a1a1a; stroke-width: 0.8"/>
      </g>
     </g>
     <g id="text_2">
      <!-- % layouts NF-e prontos -->
      <g style="fill: #1a1a1a" transform="translate(69.045 160.092231) scale(0.12 -0.12)">
       <defs>
        <path id="DejaVuSans-6c" d="M 603 4863 
L 1178 4863 
L 1178 0 
L 603 0 
L 603 4863 
z
" transform="scale(0.015625)"/>
        <path id="DejaVuSans-79" d="M 2059 -325 
Q 1816 -950 1584 -1140 
Q 1353 -1331 966 -1331 
L 506 -1331 
L 506 -850 
L 844 -850 
Q 1081 -850 1212 -737 
Q 1344 -625 1503 -206 
L 1606 56 
L 191 3500 
L 800 3500 
L 1894 763 
L 2988 3500 
L 3597 3500 
L 2059 -325 
z
" transform="scale(0.015625)"/>
        <path id="DejaVuSans-75" d="M 544 1381 
L 544 3500 
L 1119 3500 
L 1119 1403 
Q 1119 906 1312 657 
Q 1506 409 1894 409 
Q 2359 409 2629 706 
Q 2900 1003 2900 1516 
L 2900 3500 
L 3475 3500 
L 3475 0 
L 2900 0 
L 2900 538 
Q 2691 219 2414 64 
Q 2138 -91 1772 -91 
Q 1169 -91 856 284 
Q 544 659 544 1381 
z
M 1991 3584 
L 1991 3584 
z
" transform="scale(0.015625)"/>
        <path id="DejaVuSans-74" d="M 1172 4494 
L 1172 3500 
L 2356 3500 
L 2356 3053 
L 1172 3053 
L 1172 1153 
Q 1172 725 1289 603 
Q 1406 481 1766 481 
L 2356 481 
L 2356 0 
L 1766 0 
Q 1100 0 847 248 
Q 594 497 594 1153 
L 594 3053 
L 172 3053 
L 172 3500 
L 594 3500 
L 594 4494 
L 1172 4494 
z
" transform="scale(0.015625)"/>
        <path id="DejaVuSans-4e" d="M 628 4666 
L 1478 4666 
L 3547 763 
L 3547 4666 
L 4159 4666 
L 4159 0 
L 3309 0 
L 1241 3903 
L 1241 0 
L 628 0 
L 628 4666 
z
" transform="scale(0.015625)"/>
        <path id="DejaVuSans-46" d="M 628 4666 
L 3309 4666 
L 3309 4134 
L 1259 4134 
L 1259 2759 
L 3109 2759 
L 3109 2228 
L 1259 2228 
L 1259 0 
L 628 0 
L 628 4666 
z
" transform="scale(0.015625)"/>
        <path id="DejaVuSans-2d" d="M 313 2009 
L 1997 2009 
L 1997 1497 
L 313 1497 
L 313 2009 
z
" transform="scale(0.015625)"/>
       </defs>
       <use xlink:href="#DejaVuSans-25"/>
       <use xlink:href="#DejaVuSans-20" x="95.019531"/>
       <use xlink:href="#DejaVuSans-6c" x="126.806641"/>
       <use xlink:href="#DejaVuSans-61" x="154.589844"/>
       <use xlink:href="#DejaVuSans-79" x="215.869141"/>
       <use xlink:href="#DejaVuSans-6f" x="275.048828"/>
       <use xlink:href="#DejaVuSans-75" x="336.230469"/>
       <use xlink:href="#DejaVuSans-74" x="399.609375"/>
       <use xlink:href="#DejaVuSans-73" x="438.818359"/>
       <use xlink:href="#DejaVuSans-20" x="490.917969"/>
       <use xlink:href="#DejaVuSans-4e" x="522.705078"/>
       <use xlink:href="#DejaVuSans-46" x="597.509766"/>
       <use xlink:href="#DejaVuSans-2d" x="655.029297"/>
       <use xlink:href="#DejaVuSans-65" x="691.113281"/>
       <use xlink:href="#DejaVuSans-20" x="752.636719"/>
       <use xlink:href="#DejaVuSans-70" x="784.423828"/>
       <use xlink:href="#DejaVuSans-72" x="847.900391"/>
       <use xlink:href="#DejaVuSans-6f" x="886.763672"/>
       <use xlink:href="#DejaVuSans-6e" x="947.945312"/>
       <use xlink:href="#DejaVuSans-74" x="1011.324219"/>
       <use xlink:href="#DejaVuSans-6f" x="1050.533203"/>
       <use xlink:href="#DejaVuSans-73" x="1111.714844"/>
      </g>
     </g>
    </g>
    <g id="ytick_3">
     <g id="line2d_5">
      <path d="M 212.200625 129.257306 
L 486.740625 129.257306 
" clip-path="url(#p586d9b3a8a)" style="fill: none; stroke-dasharray: 2.22,0.96; stroke-dashoffset: 0; stroke: #b0b0b0; stroke-opacity: 0.7; stroke-width: 0.6"/>
     </g>
     <g id="line2d_6">
      <g>
       <use xlink:href="#mca9a4174da" x="212.200625" y="129.257306" style="fill: #1a1a1a; stroke: #1a1a1a; stroke-width: 0.8"/>
      </g>
     </g>
     <g id="text_3">
      <!-- % fornecedores críticos avaliados -->
      <g style="fill: #1a1a1a" transform="translate(7.2 133.816369) scale(0.12 -0.12)">
       <defs>
        <path id="DejaVuSans-66" d="M 2375 4863 
L 2375 4384 
L 1825 4384 
Q 1516 4384 1395 4259 
Q 1275 4134 1275 3809 
L 1275 3500 
L 2222 3500 
L 2222 3053 
L 1275 3053 
L 1275 0 
L 697 0 
L 697 3053 
L 147 3053 
L 147 3500 
L 697 3500 
L 697 3744 
Q 697 4328 969 4595 
Q 1241 4863 1831 4863 
L 2375 4863 
z
" transform="scale(0.015625)"/>
        <path id="DejaVuSans-ed" d="M 1322 5119 
L 1944 5119 
L 926 3944 
L 447 3944 
L 1322 5119 
z
M 603 3500 
L 1178 3500 
L 1178 0 
L 603 0 
L 603 3500 
z
M 891 3584 
L 891 3584 
z
" transform="scale(0.015625)"/>
        <path id="DejaVuSans-76" d="M 191 3500 
L 800 3500 
L 1894 563 
L 2988 3500 
L 3597 3500 
L 2284 0 
L 1503 0 
L 191 3500 
z
" transform="scale(0.015625)"/>
       </defs>
       <use xlink:href="#DejaVuSans-25"/>
       <use xlink:href="#DejaVuSans-20" x="95.019531"/>
       <use xlink:href="#DejaVuSans-66" x="126.806641"/>
       <use xlink:href="#DejaVuSans-6f" x="162.011719"/>
       <use xlink:href="#DejaVuSans-72" x="223.193359"/>
       <use xlink:href="#DejaVuSans-6e" x="262.556641"/>
       <use xlink:href="#DejaVuSans-65" x="325.935547"/>
       <use xlink:href="#DejaVuSans-63" x="387.458984"/>
       <use xlink:href="#DejaVuSans-65" x="442.439453"/>
       <use xlink:href="#DejaVuSans-64" x="503.962891"/>
       <use xlink:href="#DejaVuSans-6f" x="567.439453"/>
       <use xlink:href="#DejaVuSans-72" x="628.621094"/>
       <use xlink:href="#DejaVuSans-65" x="667.484375"/>
       <use xlink:href="#DejaVuSans-73" x="729.007812"/>
       <use xlink:href="#DejaVuSans-20" x="781.107422"/>
       <use xlink:href="#DejaVuSans-63" x="812.894531"/>
       <use xlink:href="#DejaVuSans-72" x="867.875"/>
       <use xlink:href="#DejaVuSans-ed" x="908.988281"/>
       <use xlink:href="#DejaVuSans-74" x="936.771484"/>
       <use xlink:href="#DejaVuSans-69" x="975.980469"/>
       <use xlink:href="#DejaVuSans-63" x="1003.763672"/>
       <use xlink:href="#DejaVuSans-6f" x="1058.744141"/>
       <use xlink:href="#DejaVuSans-73" x="1119.925781"/>
       <use xlink:href="#DejaVuSans-20" x="1172.025391"/>
       <use xlink:href="#DejaVuSans-61" x="1203.8125"/>
       <use xlink:href="#DejaVuSans-76" x="1265.091797"/>
       <use xlink:href="#DejaVuSans-61" x="1324.271484"/>
       <use xlink:href="#DejaVuSans-6c" x="1385.550781"/>
       <use xlink:href="#DejaVuSans-69" x="1413.333984"/>
       <use xlink:href="#DejaVuSans-61" x="1441.117188"/>
       <use xlink:href="#DejaVuSans-64" x="1502.396484"/>
       <use xlink:href="#DejaVuSans-6f" x="1565.873047"/>
       <use xlink:href="#DejaVuSans-73" x="1627.054688"/>
      </g>
     </g>
    </g>
    <g id="ytick_4">
     <g id="line2d_7">
      <path d="M 212.200625 102.981444 
L 486.740625 102.981444 
" clip-path="url(#p586d9b3a8a)" style="fill: none; stroke-dasharray: 2.22,0.96; stroke-dashoffset: 0; stroke: #b0b0b0; stroke-opacity: 0.7; stroke-width: 0.6"/>
     </g>
     <g id="line2d_8">
      <g>
       <use xlink:href="#mca9a4174da" x="212.200625" y="102.981444" style="fill: #1a1a1a; stroke: #1a1a1a; stroke-width: 0.8"/>
      </g>
     </g>
     <g id="text_4">
      <!-- % clientes mapeados por UF -->
      <g style="fill: #1a1a1a" transform="translate(37.261875 107.540506) scale(0.12 -0.12)">
       <defs>
        <path id="DejaVuSans-55" d="M 556 4666 
L 1191 4666 
L 1191 1831 
Q 1191 1081 1462 751 
Q 1734 422 2344 422 
Q 2950 422 3222 751 
Q 3494 1081 3494 1831 
L 3494 4666 
L 4128 4666 
L 4128 1753 
Q 4128 841 3676 375 
Q 3225 -91 2344 -91 
Q 1459 -91 1007 375 
Q 556 841 556 1753 
L 556 4666 
z
" transform="scale(0.015625)"/>
       </defs>
       <use xlink:href="#DejaVuSans-25"/>
       <use xlink:href="#DejaVuSans-20" x="95.019531"/>
       <use xlink:href="#DejaVuSans-63" x="126.806641"/>
       <use xlink:href="#DejaVuSans-6c" x="181.787109"/>
       <use xlink:href="#DejaVuSans-69" x="209.570312"/>
       <use xlink:href="#DejaVuSans-65" x="237.353516"/>
       <use xlink:href="#DejaVuSans-6e" x="298.876953"/>
       <use xlink:href="#DejaVuSans-74" x="362.255859"/>
       <use xlink:href="#DejaVuSans-65" x="401.464844"/>
       <use xlink:href="#DejaVuSans-73" x="462.988281"/>
       <use xlink:href="#DejaVuSans-20" x="515.087891"/>
       <use xlink:href="#DejaVuSans-6d" x="546.875"/>
       <use xlink:href="#DejaVuSans-61" x="644.287109"/>
       <use xlink:href="#DejaVuSans-70" x="705.566406"/>
       <use xlink:href="#DejaVuSans-65" x="769.042969"/>
       <use xlink:href="#DejaVuSans-61" x="830.566406"/>
       <use xlink:href="#DejaVuSans-64" x="891.845703"/>
       <use xlink:href="#DejaVuSans-6f" x="955.322266"/>
       <use xlink:href="#DejaVuSans-73" x="1016.503906"/>
       <use xlink:href="#DejaVuSans-20" x="1068.603516"/>
       <use xlink:href="#DejaVuSans-70" x="1100.390625"/>
       <use xlink:href="#DejaVuSans-6f" x="1163.867188"/>
       <use xlink:href="#DejaVuSans-72" x="1225.048828"/>
       <use xlink:href="#DejaVuSans-20" x="1266.162109"/>
       <use xlink:href="#DejaVuSans-55" x="1297.949219"/>
       <use xlink:href="#DejaVuSans-46" x="1371.142578"/>
      </g>
     </g>
    </g>
    <g id="ytick_5">
     <g id="line2d_9">
      <path d="M 212.200625 76.705582 
L 486.740625 76.705582 
" clip-path="url(#p586d9b3a8a)" style="fill: none; stroke-dasharray: 2.22,0.96; stroke-dashoffset: 0; stroke: #b0b0b0; stroke-opacity: 0.7; stroke-width: 0.6"/>
     </g>
     <g id="line2d_10">
      <g>
       <use xlink:href="#mca9a4174da" x="212.200625" y="76.705582" style="fill: #1a1a1a; stroke: #1a1a1a; stroke-width: 0.8"/>
      </g>
     </g>
     <g id="text_5">
      <!-- % time treinado -->
      <g style="fill: #1a1a1a" transform="translate(112.55625 81.264644) scale(0.12 -0.12)">
       <use xlink:href="#DejaVuSans-25"/>
       <use xlink:href="#DejaVuSans-20" x="95.019531"/>
       <use xlink:href="#DejaVuSans-74" x="126.806641"/>
       <use xlink:href="#DejaVuSans-69" x="166.015625"/>
       <use xlink:href="#DejaVuSans-6d" x="193.798828"/>
       <use xlink:href="#DejaVuSans-65" x="291.210938"/>
       <use xlink:href="#DejaVuSans-20" x="352.734375"/>
       <use xlink:href="#DejaVuSans-74" x="384.521484"/>
       <use xlink:href="#DejaVuSans-72" x="423.730469"/>
       <use xlink:href="#DejaVuSans-65" x="462.59375"/>
       <use xlink:href="#DejaVuSans-69" x="524.117188"/>
       <use xlink:href="#DejaVuSans-6e" x="551.900391"/>
       <use xlink:href="#DejaVuSans-61" x="615.279297"/>
       <use xlink:href="#DejaVuSans-64" x="676.558594"/>
       <use xlink:href="#DejaVuSans-6f" x="740.035156"/>
      </g>
     </g>
    </g>
    <g id="ytick_6">
     <g id="line2d_11">
      <path d="M 212.200625 50.42972 
L 486.740625 50.42972 
" clip-path="url(#p586d9b3a8a)" style="fill: none; stroke-dasharray: 2.22,0.96; stroke-dashoffset: 0; stroke: #b0b0b0; stroke-opacity: 0.7; stroke-width: 0.6"/>
     </g>
     <g id="line2d_12">
      <g>
       <use xlink:href="#mca9a4174da" x="212.200625" y="50.42972" style="fill: #1a1a1a; stroke: #1a1a1a; stroke-width: 0.8"/>
      </g>
     </g>
     <g id="text_6">
      <!-- % automações implementadas -->
      <g style="fill: #1a1a1a" transform="translate(22.730625 55.09097) scale(0.12 -0.12)">
       <defs>
        <path id="DejaVuSans-e7" d="M 3122 3366 
L 3122 2828 
Q 2878 2963 2633 3030 
Q 2388 3097 2138 3097 
Q 1578 3097 1268 2742 
Q 959 2388 959 1747 
Q 959 1106 1268 751 
Q 1578 397 2138 397 
Q 2388 397 2633 464 
Q 2878 531 3122 666 
L 3122 134 
Q 2881 22 2623 -34 
Q 2366 -91 2075 -91 
Q 1284 -91 818 406 
Q 353 903 353 1747 
Q 353 2603 823 3093 
Q 1294 3584 2113 3584 
Q 2378 3584 2631 3529 
Q 2884 3475 3122 3366 
z
M 2311 0 
Q 2482 -194 2566 -358 
Q 2651 -522 2651 -672 
Q 2651 -950 2463 -1092 
Q 2276 -1234 1907 -1234 
Q 1764 -1234 1628 -1215 
Q 1492 -1197 1357 -1159 
L 1357 -750 
Q 1464 -803 1579 -826 
Q 1695 -850 1842 -850 
Q 2026 -850 2120 -775 
Q 2214 -700 2214 -556 
Q 2214 -463 2146 -327 
Q 2079 -191 1939 0 
L 2311 0 
z
" transform="scale(0.015625)"/>
        <path id="DejaVuSans-f5" d="M 1959 3097 
Q 1497 3097 1228 2736 
Q 959 2375 959 1747 
Q 959 1119 1226 758 
Q 1494 397 1959 397 
Q 2419 397 2687 759 
Q 2956 1122 2956 1747 
Q 2956 2369 2687 2733 
Q 2419 3097 1959 3097 
z
M 1959 3584 
Q 2709 3584 3137 3096 
Q 3566 2609 3566 1747 
Q 3566 888 3137 398 
Q 2709 -91 1959 -91 
Q 1206 -91 779 398 
Q 353 888 353 1747 
Q 353 2609 779 3096 
Q 1206 3584 1959 3584 
z
M 1948 4281 
L 1769 4453 
Q 1701 4516 1649 4545 
Q 1598 4575 1557 4575 
Q 1438 4575 1382 4461 
Q 1326 4347 1319 4091 
L 929 4091 
Q 935 4513 1094 4742 
Q 1254 4972 1538 4972 
Q 1657 4972 1757 4928 
Q 1857 4884 1973 4781 
L 2151 4609 
Q 2219 4547 2271 4517 
Q 2323 4488 2363 4488 
Q 2482 4488 2538 4602 
Q 2594 4716 2601 4972 
L 2991 4972 
Q 2985 4550 2825 4320 
Q 2666 4091 2382 4091 
Q 2263 4091 2163 4134 
Q 2063 4178 1948 4281 
z
" transform="scale(0.015625)"/>
       </defs>
       <use xlink:href="#DejaVuSans-25"/>
       <use xlink:href="#DejaVuSans-20" x="95.019531"/>
       <use xlink:href="#DejaVuSans-61" x="126.806641"/>
       <use xlink:href="#DejaVuSans-75" x="188.085938"/>
       <use xlink:href="#DejaVuSans-74" x="251.464844"/>
       <use xlink:href="#DejaVuSans-6f" x="290.673828"/>
       <use xlink:href="#DejaVuSans-6d" x="351.855469"/>
       <use xlink:href="#DejaVuSans-61" x="449.267578"/>
       <use xlink:href="#DejaVuSans-e7" x="510.546875"/>
       <use xlink:href="#DejaVuSans-f5" x="565.527344"/>
       <use xlink:href="#DejaVuSans-65" x="626.708984"/>
       <use xlink:href="#DejaVuSans-73" x="688.232422"/>
       <use xlink:href="#DejaVuSans-20" x="740.332031"/>
       <use xlink:href="#DejaVuSans-69" x="772.119141"/>
       <use xlink:href="#DejaVuSans-6d" x="799.902344"/>
       <use xlink:href="#DejaVuSans-70" x="897.314453"/>
       <use xlink:href="#DejaVuSans-6c" x="960.791016"/>
       <use xlink:href="#DejaVuSans-65" x="988.574219"/>
       <use xlink:href="#DejaVuSans-6d" x="1050.097656"/>
       <use xlink:href="#DejaVuSans-65" x="1147.509766"/>
       <use xlink:href="#DejaVuSans-6e" x="1209.033203"/>
       <use xlink:href="#DejaVuSans-74" x="1272.412109"/>
       <use xlink:href="#DejaVuSans-61" x="1311.621094"/>
       <use xlink:href="#DejaVuSans-64" x="1372.900391"/>
       <use xlink:href="#DejaVuSans-61" x="1436.376953"/>
       <use xlink:href="#DejaVuSans-73" x="1497.65625"/>
      </g>
     </g>
    </g>
   </g>
   <g id="patch_9">
    <path d="M 212.200625 199.939375 
L 212.200625 32.299375 
" style="fill: none; stroke: #1a1a1a; stroke-linejoin: miter; stroke-linecap: square"/>
   </g>
   <g id="patch_10">
    <path d="M 212.200625 199.939375 
L 486.740625 199.939375 
" style="fill: none; stroke: #1a1a1a; stroke-linejoin: miter; stroke-linecap: square"/>
   </g>
   <g id="text_7">
    <!-- 85% -->
    <g style="fill: #ffffff" transform="translate(217.691425 184.568405) scale(0.1 -0.1)">
     <defs>
      <path id="DejaVuSans-Bold-38" d="M 2228 2088 
Q 1891 2088 1709 1903 
Q 1528 1719 1528 1375 
Q 1528 1031 1709 848 
Q 1891 666 2228 666 
Q 2563 666 2741 848 
Q 2919 1031 2919 1375 
Q 2919 1722 2741 1905 
Q 2563 2088 2228 2088 
z
M 1350 2484 
Q 925 2613 709 2878 
Q 494 3144 494 3541 
Q 494 4131 934 4440 
Q 1375 4750 2228 4750 
Q 3075 4750 3515 4442 
Q 3956 4134 3956 3541 
Q 3956 3144 3739 2878 
Q 3522 2613 3097 2484 
Q 3572 2353 3814 2058 
Q 4056 1763 4056 1313 
Q 4056 619 3595 264 
Q 3134 -91 2228 -91 
Q 1319 -91 855 264 
Q 391 619 391 1313 
Q 391 1763 633 2058 
Q 875 2353 1350 2484 
z
M 1631 3419 
Q 1631 3141 1786 2991 
Q 1941 2841 2228 2841 
Q 2509 2841 2662 2991 
Q 2816 3141 2816 3419 
Q 2816 3697 2662 3845 
Q 2509 3994 2228 3994 
Q 1941 3994 1786 3844 
Q 1631 3694 1631 3419 
z
" transform="scale(0.015625)"/>
      <path id="DejaVuSans-Bold-35" d="M 678 4666 
L 3669 4666 
L 3669 3781 
L 1638 3781 
L 1638 3059 
Q 1775 3097 1914 3117 
Q 2053 3138 2203 3138 
Q 3056 3138 3531 2711 
Q 4006 2284 4006 1522 
Q 4006 766 3489 337 
Q 2972 -91 2053 -91 
Q 1656 -91 1267 -14 
Q 878 63 494 219 
L 494 1166 
Q 875 947 1217 837 
Q 1559 728 1863 728 
Q 2300 728 2551 942 
Q 2803 1156 2803 1522 
Q 2803 1891 2551 2103 
Q 2300 2316 1863 2316 
Q 1603 2316 1309 2248 
Q 1016 2181 678 2041 
L 678 4666 
z
" transform="scale(0.015625)"/>
      <path id="DejaVuSans-Bold-25" d="M 4959 1925 
Q 4738 1925 4616 1733 
Q 4494 1541 4494 1184 
Q 4494 825 4614 633 
Q 4734 441 4959 441 
Q 5184 441 5303 633 
Q 5422 825 5422 1184 
Q 5422 1541 5301 1733 
Q 5181 1925 4959 1925 
z
M 4959 2450 
Q 5541 2450 5875 2112 
Q 6209 1775 6209 1184 
Q 6209 594 5875 251 
Q 5541 -91 4959 -91 
Q 4378 -91 4042 251 
Q 3706 594 3706 1184 
Q 3706 1772 4042 2111 
Q 4378 2450 4959 2450 
z
M 2094 -91 
L 1403 -91 
L 4319 4750 
L 5013 4750 
L 2094 -91 
z
M 1453 4750 
Q 2034 4750 2367 4411 
Q 2700 4072 2700 3481 
Q 2700 2891 2367 2550 
Q 2034 2209 1453 2209 
Q 872 2209 539 2550 
Q 206 2891 206 3481 
Q 206 4072 539 4411 
Q 872 4750 1453 4750 
z
M 1453 4225 
Q 1228 4225 1106 4031 
Q 984 3838 984 3481 
Q 984 3122 1106 2926 
Q 1228 2731 1453 2731 
Q 1678 2731 1798 2926 
Q 1919 3122 1919 3481 
Q 1919 3838 1797 4031 
Q 1675 4225 1453 4225 
z
" transform="scale(0.015625)"/>
     </defs>
     <use xlink:href="#DejaVuSans-Bold-38"/>
     <use xlink:href="#DejaVuSans-Bold-35" x="69.580078"/>
     <use xlink:href="#DejaVuSans-Bold-25" x="139.160156"/>
    </g>
   </g>
   <g id="text_8">
    <!-- 65% -->
    <g style="fill: #ffffff" transform="translate(217.691425 158.292543) scale(0.1 -0.1)">
     <defs>
      <path id="DejaVuSans-Bold-36" d="M 2316 2303 
Q 2000 2303 1842 2098 
Q 1684 1894 1684 1484 
Q 1684 1075 1842 870 
Q 2000 666 2316 666 
Q 2634 666 2792 870 
Q 2950 1075 2950 1484 
Q 2950 1894 2792 2098 
Q 2634 2303 2316 2303 
z
M 3803 4544 
L 3803 3681 
Q 3506 3822 3243 3889 
Q 2981 3956 2731 3956 
Q 2194 3956 1894 3657 
Q 1594 3359 1544 2772 
Q 1750 2925 1990 3001 
Q 2231 3078 2516 3078 
Q 3231 3078 3670 2659 
Q 4109 2241 4109 1563 
Q 4109 813 3618 361 
Q 3128 -91 2303 -91 
Q 1394 -91 895 523 
Q 397 1138 397 2266 
Q 397 3422 980 4083 
Q 1563 4744 2578 4744 
Q 2900 4744 3203 4694 
Q 3506 4644 3803 4544 
z
" transform="scale(0.015625)"/>
     </defs>
     <use xlink:href="#DejaVuSans-Bold-36"/>
     <use xlink:href="#DejaVuSans-Bold-35" x="69.580078"/>
     <use xlink:href="#DejaVuSans-Bold-25" x="139.160156"/>
    </g>
   </g>
   <g id="text_9">
    <!-- 70% -->
    <g style="fill: #ffffff" transform="translate(217.691425 132.016681) scale(0.1 -0.1)">
     <defs>
      <path id="DejaVuSans-Bold-37" d="M 428 4666 
L 3944 4666 
L 3944 3988 
L 2125 0 
L 953 0 
L 2675 3781 
L 428 3781 
L 428 4666 
z
" transform="scale(0.015625)"/>
      <path id="DejaVuSans-Bold-30" d="M 2944 2338 
Q 2944 3213 2780 3570 
Q 2616 3928 2228 3928 
Q 1841 3928 1675 3570 
Q 1509 3213 1509 2338 
Q 1509 1453 1675 1090 
Q 1841 728 2228 728 
Q 2613 728 2778 1090 
Q 2944 1453 2944 2338 
z
M 4147 2328 
Q 4147 1169 3647 539 
Q 3147 -91 2228 -91 
Q 1306 -91 806 539 
Q 306 1169 306 2328 
Q 306 3491 806 4120 
Q 1306 4750 2228 4750 
Q 3147 4750 3647 4120 
Q 4147 3491 4147 2328 
z
" transform="scale(0.015625)"/>
     </defs>
     <use xlink:href="#DejaVuSans-Bold-37"/>
     <use xlink:href="#DejaVuSans-Bold-30" x="69.580078"/>
     <use xlink:href="#DejaVuSans-Bold-25" x="139.160156"/>
    </g>
   </g>
   <g id="text_10">
    <!-- 80% -->
    <g style="fill: #ffffff" transform="translate(217.691425 105.740819) scale(0.1 -0.1)">
     <use xlink:href="#DejaVuSans-Bold-38"/>
     <use xlink:href="#DejaVuSans-Bold-30" x="69.580078"/>
     <use xlink:href="#DejaVuSans-Bold-25" x="139.160156"/>
    </g>
   </g>
   <g id="text_11">
    <!-- 40% -->
    <g style="fill: #ffffff" transform="translate(217.691425 79.464957) scale(0.1 -0.1)">
     <defs>
      <path id="DejaVuSans-Bold-34" d="M 2356 3675 
L 1038 1722 
L 2356 1722 
L 2356 3675 
z
M 2156 4666 
L 3494 4666 
L 3494 1722 
L 4159 1722 
L 4159 850 
L 3494 850 
L 3494 0 
L 2356 0 
L 2356 850 
L 288 850 
L 288 1881 
L 2156 4666 
z
" transform="scale(0.015625)"/>
     </defs>
     <use xlink:href="#DejaVuSans-Bold-34"/>
     <use xlink:href="#DejaVuSans-Bold-30" x="69.580078"/>
     <use xlink:href="#DejaVuSans-Bold-25" x="139.160156"/>
    </g>
   </g>
   <g id="text_12">
    <!-- 20% -->
    <g style="fill: #ffffff" transform="translate(217.691425 53.189095) scale(0.1 -0.1)">
     <defs>
      <path id="DejaVuSans-Bold-32" d="M 1844 884 
L 3897 884 
L 3897 0 
L 506 0 
L 506 884 
L 2209 2388 
Q 2438 2594 2547 2791 
Q 2656 2988 2656 3200 
Q 2656 3528 2436 3728 
Q 2216 3928 1850 3928 
Q 1569 3928 1234 3808 
Q 900 3688 519 3450 
L 519 4475 
Q 925 4609 1322 4679 
Q 1719 4750 2100 4750 
Q 2938 4750 3402 4381 
Q 3866 4013 3866 3353 
Q 3866 2972 3669 2642 
Q 3472 2313 2841 1759 
L 1844 884 
z
" transform="scale(0.015625)"/>
     </defs>
     <use xlink:href="#DejaVuSans-Bold-32"/>
     <use xlink:href="#DejaVuSans-Bold-30" x="69.580078"/>
     <use xlink:href="#DejaVuSans-Bold-25" x="139.160156"/>
    </g>
   </g>
   <g id="text_13">
    <!-- Painel RAG – KPIs da Implementação da Reforma -->
    <g style="fill: #333333" transform="translate(191.030078 17.299375) scale(0.13 -0.13)">
     <defs>
      <path id="DejaVuSans-50" d="M 1259 4147 
L 1259 2394 
L 2053 2394 
Q 2494 2394 2734 2622 
Q 2975 2850 2975 3272 
Q 2975 3691 2734 3919 
Q 2494 4147 2053 4147 
L 1259 4147 
z
M 628 4666 
L 2053 4666 
Q 2838 4666 3239 4311 
Q 3641 3956 3641 3272 
Q 3641 2581 3239 2228 
Q 2838 1875 2053 1875 
L 1259 1875 
L 1259 0 
L 628 0 
L 628 4666 
z
" transform="scale(0.015625)"/>
      <path id="DejaVuSans-52" d="M 2841 2188 
Q 3044 2119 3236 1894 
Q 3428 1669 3622 1275 
L 4263 0 
L 3584 0 
L 2988 1197 
Q 2756 1666 2539 1819 
Q 2322 1972 1947 1972 
L 1259 1972 
L 1259 0 
L 628 0 
L 628 4666 
L 2053 4666 
Q 2853 4666 3247 4331 
Q 3641 3997 3641 3322 
Q 3641 2881 3436 2590 
Q 3231 2300 2841 2188 
z
M 1259 4147 
L 1259 2491 
L 2053 2491 
Q 2509 2491 2742 2702 
Q 2975 2913 2975 3322 
Q 2975 3731 2742 3939 
Q 2509 4147 2053 4147 
L 1259 4147 
z
" transform="scale(0.015625)"/>
      <path id="DejaVuSans-41" d="M 2188 4044 
L 1331 1722 
L 3047 1722 
L 2188 4044 
z
M 1831 4666 
L 2547 4666 
L 4325 0 
L 3669 0 
L 3244 1197 
L 1141 1197 
L 716 0 
L 50 0 
L 1831 4666 
z
" transform="scale(0.015625)"/>
      <path id="DejaVuSans-47" d="M 3809 666 
L 3809 1919 
L 2778 1919 
L 2778 2438 
L 4434 2438 
L 4434 434 
Q 4069 175 3628 42 
Q 3188 -91 2688 -91 
Q 1594 -91 976 548 
Q 359 1188 359 2328 
Q 359 3472 976 4111 
Q 1594 4750 2688 4750 
Q 3144 4750 3555 4637 
Q 3966 4525 4313 4306 
L 4313 3634 
Q 3963 3931 3569 4081 
Q 3175 4231 2741 4231 
Q 1884 4231 1454 3753 
Q 1025 3275 1025 2328 
Q 1025 1384 1454 906 
Q 1884 428 2741 428 
Q 3075 428 3337 486 
Q 3600 544 3809 666 
z
" transform="scale(0.015625)"/>
      <path id="DejaVuSans-2013" d="M 313 1978 
L 2888 1978 
L 2888 1528 
L 313 1528 
L 313 1978 
z
" transform="scale(0.015625)"/>
      <path id="DejaVuSans-4b" d="M 628 4666 
L 1259 4666 
L 1259 2694 
L 3353 4666 
L 4166 4666 
L 1850 2491 
L 4331 0 
L 3500 0 
L 1259 2247 
L 1259 0 
L 628 0 
L 628 4666 
z
" transform="scale(0.015625)"/>
      <path id="DejaVuSans-49" d="M 628 4666 
L 1259 4666 
L 1259 0 
L 628 0 
L 628 4666 
z
" transform="scale(0.015625)"/>
      <path id="DejaVuSans-e3" d="M 2194 1759 
Q 1497 1759 1228 1600 
Q 959 1441 959 1056 
Q 959 750 1161 570 
Q 1363 391 1709 391 
Q 2188 391 2477 730 
Q 2766 1069 2766 1631 
L 2766 1759 
L 2194 1759 
z
M 3341 1997 
L 3341 0 
L 2766 0 
L 2766 531 
Q 2569 213 2275 61 
Q 1981 -91 1556 -91 
Q 1019 -91 701 211 
Q 384 513 384 1019 
Q 384 1609 779 1909 
Q 1175 2209 1959 2209 
L 2766 2209 
L 2766 2266 
Q 2766 2663 2505 2880 
Q 2244 3097 1772 3097 
Q 1472 3097 1187 3025 
Q 903 2953 641 2809 
L 641 3341 
Q 956 3463 1253 3523 
Q 1550 3584 1831 3584 
Q 2591 3584 2966 3190 
Q 3341 2797 3341 1997 
z
M 1844 4281 
L 1665 4453 
Q 1597 4516 1545 4545 
Q 1494 4575 1453 4575 
Q 1334 4575 1278 4461 
Q 1222 4347 1215 4091 
L 825 4091 
Q 831 4513 990 4742 
Q 1150 4972 1434 4972 
Q 1553 4972 1653 4928 
Q 1753 4884 1869 4781 
L 2047 4609 
Q 2115 4547 2167 4517 
Q 2219 4488 2259 4488 
Q 2378 4488 2434 4602 
Q 2490 4716 2497 4972 
L 2887 4972 
Q 2881 4550 2721 4320 
Q 2562 4091 2278 4091 
Q 2159 4091 2059 4134 
Q 1959 4178 1844 4281 
z
" transform="scale(0.015625)"/>
     </defs>
     <use xlink:href="#DejaVuSans-50"/>
     <use xlink:href="#DejaVuSans-61" x="55.802734"/>
     <use xlink:href="#DejaVuSans-69" x="117.082031"/>
     <use xlink:href="#DejaVuSans-6e" x="144.865234"/>
     <use xlink:href="#DejaVuSans-65" x="208.244141"/>
     <use xlink:href="#DejaVuSans-6c" x="269.767578"/>
     <use xlink:href="#DejaVuSans-20" x="297.550781"/>
     <use xlink:href="#DejaVuSans-52" x="329.337891"/>
     <use xlink:href="#DejaVuSans-41" x="394.820312"/>
     <use xlink:href="#DejaVuSans-47" x="461.478516"/>
     <use xlink:href="#DejaVuSans-20" x="538.96875"/>
     <use xlink:href="#DejaVuSans-2013" x="570.755859"/>
     <use xlink:href="#DejaVuSans-20" x="620.755859"/>
     <use xlink:href="#DejaVuSans-4b" x="652.542969"/>
     <use xlink:href="#DejaVuSans-50" x="718.119141"/>
     <use xlink:href="#DejaVuSans-49" x="778.421875"/>
     <use xlink:href="#DejaVuSans-73" x="807.914062"/>
     <use xlink:href="#DejaVuSans-20" x="860.013672"/>
     <use xlink:href="#DejaVuSans-64" x="891.800781"/>
     <use xlink:href="#DejaVuSans-61" x="955.277344"/>
     <use xlink:href="#DejaVuSans-20" x="1016.556641"/>
     <use xlink:href="#DejaVuSans-49" x="1048.34375"/>
     <use xlink:href="#DejaVuSans-6d" x="1077.835938"/>
     <use xlink:href="#DejaVuSans-70" x="1175.248047"/>
     <use xlink:href="#DejaVuSans-6c" x="1238.724609"/>
     <use xlink:href="#DejaVuSans-65" x="1266.507812"/>
     <use xlink:href="#DejaVuSans-6d" x="1328.03125"/>
     <use xlink:href="#DejaVuSans-65" x="1425.443359"/>
     <use xlink:href="#DejaVuSans-6e" x="1486.966797"/>
     <use xlink:href="#DejaVuSans-74" x="1550.345703"/>
     <use xlink:href="#DejaVuSans-61" x="1589.554688"/>
     <use xlink:href="#DejaVuSans-e7" x="1650.833984"/>
     <use xlink:href="#DejaVuSans-e3" x="1705.814453"/>
     <use xlink:href="#DejaVuSans-6f" x="1767.09375"/>
     <use xlink:href="#DejaVuSans-20" x="1828.275391"/>
     <use xlink:href="#DejaVuSans-64" x="1860.0625"/>
     <use xlink:href="#DejaVuSans-61" x="1923.539062"/>
     <use xlink:href="#DejaVuSans-20" x="1984.818359"/>
     <use xlink:href="#DejaVuSans-52" x="2016.605469"/>
     <use xlink:href="#DejaVuSans-65" x="2081.587891"/>
     <use xlink:href="#DejaVuSans-66" x="2143.111328"/>
     <use xlink:href="#DejaVuSans-6f" x="2178.316406"/>
     <use xlink:href="#DejaVuSans-72" x="2239.498047"/>
     <use xlink:href="#DejaVuSans-6d" x="2278.861328"/>
     <use xlink:href="#DejaVuSans-61" x="2376.273438"/>
    </g>
   </g>
  </g>
 </g>
 <defs>
  <clipPath id="p586d9b3a8a">
   <rect x="212.200625" y="32.299375" width="274.54" height="167.64"/>
  </clipPath>
 </defs>
</svg>
